ply
format ascii 1.0
comment Created in Blender version 5.1.2
element vertex 25
property float x
property float y
property float z
property uchar red
property uchar green
property uchar blue
property uchar alpha
element face 32
property list uchar uint vertex_indices
end_header
-18.097176 8.919133 4.9470067 249 249 249 255
-19.442463 0.28297234 4.9470077 123 96 52 255
2.0971766 8.919133 4.9470067 124 97 53 255
3.442462 0.28297234 4.9470077 157 140 119 255
-2.9514117 8.919132 4.9470067 156 136 102 255
-8 8.919133 4.9470067 186 174 151 255
-13.048589 8.919133 4.9470067 217 211 200 255
-18.433498 6.7600927 4.947007 217 210 199 255
-18.76982 4.6010528 4.947007 186 173 150 255
-19.10614 2.4420133 4.947007 155 134 101 255
-13.7212305 0.2829728 4.9470077 131 107 68 255
-8 0.28297234 4.9470077 140 118 85 255
-2.2787695 0.2829728 4.9470077 147 128 101 255
3.1061401 2.442013 4.947007 148 128 101 255
2.7698193 4.6010528 4.947007 141 119 85 255
2.4334974 6.7600927 4.947007 132 108 69 255
-13.216749 6.7600927 4.947007 196 184 168 255
-13.38491 4.6010528 4.947007 175 159 134 255
-13.55307 2.442013 4.947007 152 132 101 255
-8 6.7600927 4.947007 175 160 134 255
-8 4.6010528 4.947007 164 145 119 255
-7.9999995 2.442013 4.947007 151 131 101 255
-2.7832513 6.7600927 4.947007 154 133 101 255
-2.6150913 4.6010528 4.947007 151 131 101 255
-2.4469304 2.442013 4.947007 149 129 101 255
3 16 20 19
3 17 21 20
3 20 22 19
3 21 23 20
3 0 16 6
3 7 17 16
3 8 18 17
3 9 10 18
3 18 11 21
3 11 24 21
3 12 13 24
3 24 14 23
3 23 15 22
3 22 2 4
3 19 4 5
3 6 19 5
3 16 17 20
3 17 18 21
3 20 23 22
3 21 24 23
3 0 7 16
3 7 8 17
3 8 9 18
3 9 1 10
3 18 10 11
3 11 12 24
3 12 3 13
3 24 13 14
3 23 14 15
3 22 15 2
3 19 22 4
3 6 16 19
