ply
format ascii 1.0
comment Created in Blender version 5.1.2
element vertex 170
property float x
property float y
property float z
property uchar red
property uchar green
property uchar blue
property uchar alpha
element face 322
property list uchar uint vertex_indices
end_header
-13.675382 3.3009224 0.20180744 118 91 54 255
-13.841093 3.5273633 0.2597128 118 92 58 255
-13.675382 3.5307484 0.24647489 121 92 53 255
-13.792558 3.3672454 0.21876755 117 90 54 255
-13.771055 3.398582 0.21863824 120 91 53 255
-13.792558 3.529757 0.2503522 119 91 54 255
-13.675382 3.3696392 0.20940694 122 93 52 255
-13.771312 6.2067437 0.94996136 108 91 73 255
-13.6157055 6.419377 1.0043358 110 92 73 255
-13.6157055 6.209923 0.93753064 102 82 61 255
-13.725736 6.357098 0.9884099 109 93 76 255
-13.705544 6.3313427 0.9741776 99 82 64 255
-13.6157055 6.359346 0.97962004 100 82 61 255
-13.725736 6.2089915 0.9411715 99 81 62 255
-11.718013 3.3009224 0.20180738 134 99 44 255
-11.718013 3.5307484 0.24647483 141 102 43 255
-11.552301 3.5273633 0.2597127 137 101 44 255
-11.718013 3.3696392 0.20940688 141 102 43 255
-11.622339 3.398582 0.21863818 141 102 42 255
-11.600837 3.529757 0.2503521 143 103 42 255
-11.600837 3.3672454 0.21876746 136 100 43 255
-11.77769 6.419377 1.0043356 141 107 52 255
-11.622083 6.2067437 0.9499613 141 104 49 255
-11.77769 6.209923 0.93753064 140 102 43 255
-11.667659 6.357098 0.98840976 142 107 50 255
-11.68785 6.3313427 0.9741775 142 103 43 255
-11.667659 6.2089915 0.94117147 143 103 42 255
-11.77769 6.359346 0.97962 140 101 43 255
-13.675382 3.260937 0.358172 67 67 69 255
-13.675382 3.4839926 0.42931518 75 77 82 255
-13.841093 3.487378 0.41607732 79 78 80 255
-13.675382 3.3248663 0.38449267 64 66 70 255
-13.771055 3.3546877 0.39028853 66 67 71 255
-13.792558 3.4849842 0.4254379 78 79 83 255
-13.792558 3.32726 0.37513208 68 67 69 255
-13.6157055 6.3818297 1.1511657 236 235 233 255
-13.771312 6.1691966 1.0967913 232 231 229 255
-13.6157055 6.1660175 1.1092219 233 234 234 255
-13.725736 6.3195505 1.1352398 243 241 240 255
-13.705544 6.290125 1.1353612 249 249 249 255
-13.725736 6.166949 1.105581 240 240 241 255
-13.6157055 6.317303 1.1440296 245 246 246 255
-11.718013 3.260937 0.35817194 55 64 72 255
-11.552301 3.487378 0.41607723 61 68 76 255
-11.718013 3.4839926 0.42931512 58 68 80 255
-11.600837 3.32726 0.375132 55 64 72 255
-11.622339 3.3546877 0.39028847 51 62 74 255
-11.600837 3.4849842 0.4254378 54 66 79 255
-11.718013 3.3248663 0.3844926 50 61 74 255
-11.77769 6.3818297 1.1511657 141 143 144 255
-11.77769 6.1660175 1.1092219 134 140 146 255
-11.622083 6.1691966 1.0967913 129 131 133 255
-11.77769 6.317303 1.1440296 143 146 154 255
-11.68785 6.290125 1.1353612 133 139 144 255
-11.667659 6.166949 1.105581 127 132 141 255
-11.667659 6.3195505 1.1352397 134 136 138 255
-13.647747 6.26374 0.83904475 198 201 208 255
-13.599234 3.4980192 0.08380517 179 182 193 255
-11.863699 6.3353786 0.84054494 254 254 254 255
-11.68903 3.5747235 0.08541146 254 254 254 255
-12.042225 6.3201003 0.8445323 236 237 239 255
-12.042225 6.3201003 0.9826701 245 245 246 255
-12.089951 6.2544117 0.8445323 227 228 231 255
-12.089951 6.2544117 0.9826701 239 239 241 255
-12.1671715 6.2795024 0.8445323 225 226 230 255
-12.1671715 6.2795024 0.9826701 237 238 240 255
-12.1671715 6.3606977 0.8445323 233 234 237 255
-12.1671715 6.3606977 0.9826701 243 244 245 255
-12.089951 6.3857884 0.8445323 239 240 242 255
-12.089951 6.385789 0.9826701 247 247 248 255
-12.056166 6.2947145 0.7488489 227 228 231 255
-12.094258 6.2572484 0.78552604 222 223 228 255
-12.155894 6.2715592 0.7715167 218 220 225 255
-12.155894 6.31787 0.72618127 221 223 227 255
-12.094258 6.332181 0.7121718 226 228 231 255
-12.056166 6.190254 0.71481156 214 216 221 255
-12.094258 6.152788 0.7514887 209 211 217 255
-12.155894 6.167099 0.73747927 204 206 213 255
-12.155894 6.21341 0.69214386 206 209 215 255
-12.094258 6.2277203 0.67813444 213 214 220 255
-12.056166 6.0633287 0.703095 204 206 213 255
-12.094258 6.0439606 0.75181645 202 205 211 255
-12.155894 6.051358 0.7332065 194 197 205 255
-12.155894 6.0752993 0.6729835 191 194 203 255
-12.094258 6.0826974 0.65437365 198 201 208 255
-12.121818 5.9732213 0.6704918 191 194 203 255
-12.1559925 5.9849577 0.71168894 190 193 202 255
-12.187765 6.02674 0.695953 187 191 200 255
-12.173226 6.0408263 0.6450306 186 190 199 255
-12.132469 6.00775 0.62929475 189 192 201 255
-12.271106 5.9555044 0.6243373 178 181 192 255
-12.285926 5.9884596 0.66553444 179 183 194 255
-12.277189 6.040218 0.6497985 180 184 194 255
-12.2569685 6.0392513 0.5988761 179 183 194 255
-12.253209 5.9868956 0.58314025 178 181 192 255
-12.5412035 5.940152 0.50829285 199 202 209 255
-12.556024 5.9731073 0.54949 200 202 210 255
-12.547287 6.0248656 0.5337541 200 202 210 255
-12.527066 6.023899 0.48283166 199 202 209 255
-12.523307 5.9715433 0.4670958 199 202 209 255
-12.543986 5.890012 0.47108033 203 205 212 255
-12.575548 5.9076056 0.5122775 205 207 214 255
-12.599433 5.954347 0.49654156 208 210 216 255
-12.582633 5.965641 0.44561914 208 211 217 255
-12.548365 5.9258795 0.42988324 206 208 214 255
-12.627897 5.858543 0.44865754 217 219 224 255
-12.659459 5.876137 0.48985466 219 220 225 255
-12.683344 5.9228783 0.47411877 222 223 227 255
-12.666544 5.9341726 0.42319635 222 223 227 255
-12.632277 5.894411 0.4074605 219 221 225 255
-12.753517 5.841469 0.41707993 235 236 238 255
-12.770893 5.873151 0.45827705 235 235 238 255
-12.766271 5.9254375 0.44254112 234 235 237 255
-12.746037 5.9260707 0.39161867 233 234 237 255
-12.738154 5.874175 0.37588286 235 235 238 255
-13.453524 6.3201003 0.8445323 236 237 239 255
-13.453524 6.3201003 0.9826701 245 245 246 255
-13.405798 6.2544117 0.8445323 227 228 231 255
-13.405798 6.2544117 0.9826701 239 239 241 255
-13.328577 6.2795024 0.8445323 225 226 230 255
-13.328577 6.2795024 0.9826701 237 238 240 255
-13.328577 6.3606977 0.8445323 233 234 237 255
-13.328577 6.3606977 0.9826701 243 244 245 255
-13.405798 6.3857884 0.8445323 239 240 242 255
-13.405798 6.385789 0.9826701 247 247 248 255
-13.439583 6.2947145 0.7488489 227 228 231 255
-13.40149 6.2572484 0.78552604 222 223 228 255
-13.339854 6.2715592 0.7715167 218 220 225 255
-13.339854 6.31787 0.72618127 221 223 227 255
-13.40149 6.332181 0.7121718 226 228 231 255
-13.439583 6.190254 0.71481156 214 216 221 255
-13.40149 6.152788 0.7514887 209 211 217 255
-13.339854 6.167099 0.73747927 204 206 213 255
-13.339854 6.21341 0.69214386 206 209 215 255
-13.40149 6.2277203 0.67813444 213 214 220 255
-13.439583 6.0633287 0.703095 204 206 213 255
-13.40149 6.0439606 0.75181645 202 205 211 255
-13.339854 6.051358 0.7332065 194 197 205 255
-13.339854 6.0752993 0.6729835 191 194 203 255
-13.40149 6.0826974 0.65437365 198 201 208 255
-13.373931 5.9732213 0.6704918 191 194 203 255
-13.339756 5.9849577 0.71168894 190 193 202 255
-13.307983 6.02674 0.695953 187 191 200 255
-13.322522 6.0408263 0.6450306 186 190 199 255
-13.363279 6.00775 0.62929475 189 192 201 255
-13.224643 5.9555044 0.6243373 178 181 192 255
-13.209823 5.9884596 0.66553444 179 183 194 255
-13.218559 6.040218 0.6497985 180 184 194 255
-13.23878 6.0392513 0.5988761 179 183 194 255
-13.242539 5.9868956 0.58314025 178 181 192 255
-12.954545 5.940152 0.50829285 199 202 209 255
-12.939725 5.9731073 0.54949 200 202 210 255
-12.948462 6.0248656 0.5337541 200 202 210 255
-12.968682 6.023899 0.48283166 199 202 209 255
-12.972442 5.9715433 0.4670958 199 202 209 255
-12.951762 5.890012 0.47108033 203 205 212 255
-12.9202 5.9076056 0.5122775 205 207 214 255
-12.896316 5.954347 0.49654156 208 210 216 255
-12.9131155 5.965641 0.44561914 208 211 217 255
-12.947384 5.9258795 0.42988324 206 208 214 255
-12.867851 5.858543 0.44865754 217 219 224 255
-12.836289 5.876137 0.48985466 219 220 225 255
-12.812405 5.9228783 0.47411877 222 223 227 255
-12.829205 5.9341726 0.42319635 222 223 227 255
-12.863472 5.894411 0.4074605 219 221 225 255
-12.742231 5.841469 0.41707993 235 236 238 255
-12.724855 5.873151 0.45827705 235 235 238 255
-12.729478 5.9254375 0.44254112 234 235 237 255
-12.749712 5.9260707 0.39161867 233 234 237 255
-12.757594 5.874175 0.37588286 235 235 238 255
3 0 4 6
3 1 4 3
3 2 4 5
3 7 11 13
3 8 11 10
3 9 11 12
3 14 18 20
3 15 18 17
3 16 18 19
3 21 25 27
3 22 25 24
3 23 25 26
3 28 32 34
3 29 32 31
3 30 32 33
3 35 39 41
3 36 39 38
3 37 39 40
3 42 46 48
3 43 46 45
3 44 46 47
3 49 53 55
3 50 53 52
3 51 53 54
3 0 17 14
3 6 15 17
3 1 13 5
3 13 2 5
3 21 12 8
3 27 9 12
3 16 26 22
3 26 15 23
3 14 45 42
3 20 43 45
3 49 24 21
3 55 22 24
3 44 54 50
3 54 43 51
3 42 31 28
3 48 29 31
3 35 52 49
3 41 50 52
3 30 40 36
3 40 29 37
3 28 3 0
3 34 1 3
3 8 38 35
3 10 36 38
3 42 0 14
3 9 15 2
3 36 1 30
3 21 35 49
3 22 43 16
3 50 29 44
3 0 3 4
3 1 5 4
3 2 6 4
3 7 10 11
3 8 12 11
3 9 13 11
3 14 17 18
3 15 19 18
3 16 20 18
3 21 24 25
3 22 26 25
3 23 27 25
3 28 31 32
3 29 33 32
3 30 34 32
3 35 38 39
3 36 40 39
3 37 41 39
3 42 45 46
3 43 47 46
3 44 48 46
3 49 52 53
3 50 54 53
3 51 55 53
3 0 6 17
3 6 2 15
3 1 7 13
3 13 9 2
3 21 27 12
3 27 23 9
3 16 19 26
3 26 19 15
3 14 20 45
3 20 16 43
3 49 55 24
3 55 51 22
3 44 47 54
3 54 47 43
3 42 48 31
3 48 44 29
3 35 41 52
3 41 37 50
3 30 33 40
3 40 33 29
3 28 34 3
3 34 30 1
3 8 10 38
3 10 7 36
3 42 28 0
3 9 23 15
3 36 7 1
3 21 8 35
3 22 51 43
3 50 37 29
3 57 58 56
3 57 59 58
3 61 62 60
3 63 64 62
3 65 66 64
3 61 67 65
3 67 68 66
3 69 60 68
3 68 70 74
3 73 79 78
3 60 71 70
3 66 72 64
3 68 73 66
3 64 71 62
3 75 84 79
3 71 77 76
3 70 79 74
3 72 78 77
3 71 75 70
3 81 85 80
3 77 83 82
3 76 80 75
3 78 84 83
3 76 82 81
3 87 91 86
3 83 89 88
3 82 86 81
3 84 85 89
3 83 87 82
3 93 97 92
3 89 90 94
3 88 92 87
3 86 90 85
3 88 94 93
3 99 103 98
3 90 96 95
3 94 98 93
3 91 97 96
3 90 99 94
3 104 105 109
3 96 102 101
3 95 104 99
3 98 102 97
3 95 101 100
3 108 114 113
3 102 108 107
3 101 105 100
3 103 109 108
3 102 106 101
3 111 113 114
3 107 111 106
3 109 110 114
3 108 112 107
3 106 110 105
3 117 116 115
3 119 118 117
3 121 120 119
3 120 124 116
3 123 122 121
3 115 124 123
3 123 125 115
3 128 134 129
3 115 126 117
3 127 121 119
3 128 123 121
3 126 119 117
3 139 130 134
3 126 132 127
3 134 125 129
3 127 133 128
3 130 126 125
3 140 136 135
3 132 138 133
3 135 131 130
3 133 139 134
3 131 137 132
3 146 142 141
3 138 144 139
3 141 137 136
3 139 140 135
3 142 138 137
3 152 148 147
3 144 145 140
3 147 143 142
3 145 141 140
3 143 149 144
3 158 154 153
3 145 151 146
3 153 149 148
3 146 152 147
3 154 145 149
3 159 160 155
3 151 157 152
3 159 150 154
3 157 153 152
3 150 156 151
3 163 169 164
3 157 163 158
3 160 156 155
3 158 164 159
3 161 157 156
3 169 167 166
3 166 162 161
3 164 165 160
3 167 163 162
3 165 161 160
3 61 63 62
3 63 65 64
3 65 67 66
3 65 63 61
3 61 69 67
3 67 69 68
3 69 61 60
3 68 60 70
3 73 74 79
3 60 62 71
3 66 73 72
3 68 74 73
3 64 72 71
3 75 80 84
3 71 72 77
3 70 75 79
3 72 73 78
3 71 76 75
3 81 86 85
3 77 78 83
3 76 81 80
3 78 79 84
3 76 77 82
3 87 92 91
3 83 84 89
3 82 87 86
3 84 80 85
3 83 88 87
3 93 98 97
3 89 85 90
3 88 93 92
3 86 91 90
3 88 89 94
3 99 104 103
3 90 91 96
3 94 99 98
3 91 92 97
3 90 95 99
3 104 100 105
3 96 97 102
3 95 100 104
3 98 103 102
3 95 96 101
3 108 109 114
3 102 103 108
3 101 106 105
3 103 104 109
3 102 107 106
3 114 110 111
3 111 112 113
3 107 112 111
3 109 105 110
3 108 113 112
3 106 111 110
3 117 118 116
3 119 120 118
3 121 122 120
3 116 118 120
3 120 122 124
3 123 124 122
3 115 116 124
3 123 129 125
3 128 133 134
3 115 125 126
3 127 128 121
3 128 129 123
3 126 127 119
3 139 135 130
3 126 131 132
3 134 130 125
3 127 132 133
3 130 131 126
3 140 141 136
3 132 137 138
3 135 136 131
3 133 138 139
3 131 136 137
3 146 147 142
3 138 143 144
3 141 142 137
3 139 144 140
3 142 143 138
3 152 153 148
3 144 149 145
3 147 148 143
3 145 146 141
3 143 148 149
3 158 159 154
3 145 150 151
3 153 154 149
3 146 151 152
3 154 150 145
3 159 164 160
3 151 156 157
3 159 155 150
3 157 158 153
3 150 155 156
3 163 168 169
3 157 162 163
3 160 161 156
3 158 163 164
3 161 162 157
3 166 165 169
3 169 168 167
3 166 167 162
3 164 169 165
3 167 168 163
3 165 166 161
