ply
format ascii 1.0
comment Created in Blender version 5.1.2
element vertex 99
property float x
property float y
property float z
property uchar red
property uchar green
property uchar blue
property uchar alpha
element face 160
property list uchar uint vertex_indices
end_header
-15.327431 7.5497313 1.3052 148 110 46 255
-16.28812 1.3825104 1.3052005 162 125 59 255
-0.90631723 7.5497313 1.3052 151 114 51 255
0.054372787 1.3825104 1.3052005 151 114 51 255
-2.7089567 7.5497313 1.3052 149 111 49 255
-4.5115957 7.5497313 1.3052 157 119 54 255
-6.314235 7.5497313 1.3052 152 114 51 255
-8.116874 7.5497313 1.3052 154 117 52 255
-9.919512 7.5497313 1.3052 156 118 53 255
-11.722153 7.5497313 1.3052 156 118 53 255
-13.524791 7.5497313 1.3052 146 108 44 255
-15.447517 6.778829 1.3052 163 125 59 255
-15.567602 6.007926 1.3052001 166 127 62 255
-15.687689 5.2370234 1.3052001 162 124 59 255
-15.8077755 4.466121 1.3052002 165 127 61 255
-15.92786 3.6952186 1.3052002 162 123 59 255
-16.047947 2.9243162 1.3052003 169 131 64 255
-16.168034 2.1534133 1.3052003 160 121 58 255
-14.245308 1.3825109 1.3052005 161 122 59 255
-12.202497 1.3825107 1.3052005 162 123 59 255
-10.159684 1.3825107 1.3052005 166 129 62 255
-8.116874 1.3825104 1.3052005 166 127 62 255
-6.0740623 1.3825107 1.3052005 162 124 60 255
-4.031251 1.3825107 1.3052005 155 119 58 255
-1.9884396 1.3825109 1.3052005 155 118 53 255
-0.065714836 2.1534133 1.3052003 151 114 50 255
-0.18580055 2.924316 1.3052003 156 119 59 255
-0.30588675 3.6952186 1.3052002 156 120 58 255
-0.42597246 4.466121 1.3052002 157 121 55 255
-0.5460582 5.2370234 1.3052001 158 121 55 255
-0.6661453 6.007926 1.3052001 161 123 59 255
-0.7862315 6.7788286 1.3052 158 121 58 255
-13.614855 6.778829 1.3052 175 139 68 255
-13.70492 6.007926 1.3052001 180 144 72 255
-13.794985 5.2370234 1.3052001 180 144 72 255
-13.88505 4.466121 1.3052002 180 144 72 255
-13.975115 3.6952183 1.3052002 178 145 81 255
-14.065178 2.9243157 1.3052003 180 144 72 255
-14.155243 2.1534133 1.3052003 170 132 65 255
-11.782195 6.7788286 1.3052 178 143 71 255
-11.842238 6.007926 1.3052001 180 144 72 255
-11.902281 5.237024 1.3052001 180 144 72 255
-11.962324 4.4661207 1.3052002 180 144 72 255
-12.0223675 3.6952183 1.3052002 179 144 76 255
-12.082411 2.924316 1.3052003 180 144 72 255
-12.142452 2.1534135 1.3052003 175 139 68 255
-9.949534 6.7788286 1.3052 173 137 66 255
-9.979555 6.007926 1.3052001 180 144 72 255
-10.009577 5.2370234 1.3052001 180 144 72 255
-10.039598 4.4661207 1.3052002 180 144 72 255
-10.06962 3.6952186 1.3052002 180 144 72 255
-10.099642 2.9243157 1.3052003 180 144 72 255
-10.129663 2.1534133 1.3052003 172 136 68 255
-8.116874 6.7788286 1.3052 170 133 66 255
-8.116874 6.007926 1.3052001 180 144 72 255
-8.116874 5.2370234 1.3052001 180 144 72 255
-8.116874 4.4661207 1.3052002 180 144 72 255
-8.116874 3.6952186 1.3052002 180 144 72 255
-8.116874 2.924316 1.3052003 180 144 72 255
-8.116874 2.1534133 1.3052003 176 140 69 255
-6.284213 6.7788286 1.3052 175 139 68 255
-6.2541914 6.007926 1.3052001 180 144 72 255
-6.22417 5.2370234 1.3052001 180 144 72 255
-6.1941485 4.4661207 1.3052002 180 144 72 255
-6.164127 3.6952186 1.3052002 180 144 72 255
-6.134105 2.924316 1.3052003 180 144 72 255
-6.104084 2.1534133 1.3052003 175 139 68 255
-4.4515524 6.7788286 1.3052 174 138 68 255
-4.3915095 6.007926 1.3052001 180 144 72 255
-4.3314667 5.237024 1.3052001 180 144 72 255
-4.271424 4.466121 1.3052002 180 144 72 255
-4.21138 3.6952183 1.3052002 180 144 72 255
-4.1513376 2.924316 1.3052003 179 143 74 255
-4.091295 2.1534135 1.3052003 170 132 65 255
-2.6188922 6.778829 1.3052 155 117 52 255
-2.5288277 6.007926 1.3052001 174 138 67 255
-2.4387627 5.2370234 1.3052001 178 142 70 255
-2.3486977 4.466121 1.3052002 178 142 70 255
-2.2586336 3.6952183 1.3052002 178 142 71 255
-2.168569 2.9243157 1.3052003 178 142 72 255
-2.0785046 2.1534135 1.3052003 162 123 61 255
-15.598228 7.829094 1.0063796 167 129 62 255
-0.6629391 7.829094 1.0063796 160 121 58 255
-2.529851 7.829094 1.0063796 158 120 57 255
-4.3967624 7.829094 1.0063796 162 123 59 255
-6.263674 7.829094 1.0063796 161 122 58 255
-8.130585 7.829094 1.0063796 158 121 55 255
-9.997495 7.829094 1.0063796 156 118 53 255
-11.864408 7.829094 1.0063796 161 122 58 255
-13.7313175 7.829094 1.0063796 166 127 62 255
-15.5120735 8.130621 1.0063796 167 129 62 255
-0.7490945 8.130621 1.0063796 164 126 62 255
-2.5944672 8.130621 1.0063796 162 122 58 255
-4.43984 8.130621 1.0063796 162 123 59 255
-6.2852125 8.130621 1.0063796 161 122 58 255
-8.130585 8.130621 1.0063796 158 121 55 255
-9.975956 8.130621 1.0063796 156 118 53 255
-11.821329 8.130621 1.0063796 161 122 58 255
-13.666702 8.130621 1.0063796 166 127 62 255
3 32 40 39
3 33 41 40
3 34 42 41
3 35 43 42
3 36 44 43
3 37 45 44
3 39 47 46
3 40 48 47
3 41 49 48
3 42 50 49
3 43 51 50
3 44 52 51
3 46 54 53
3 47 55 54
3 48 56 55
3 49 57 56
3 50 58 57
3 51 59 58
3 54 60 53
3 55 61 54
3 56 62 55
3 57 63 56
3 58 64 57
3 59 65 58
3 61 67 60
3 62 68 61
3 63 69 62
3 64 70 63
3 65 71 64
3 66 72 65
3 68 74 67
3 69 75 68
3 70 76 69
3 71 77 70
3 72 78 71
3 73 79 72
3 0 32 10
3 11 33 32
3 12 34 33
3 13 35 34
3 14 36 35
3 15 37 36
3 16 38 37
3 17 18 38
3 38 19 45
3 45 20 52
3 52 21 59
3 21 66 59
3 22 73 66
3 23 80 73
3 24 25 80
3 80 26 79
3 79 27 78
3 78 28 77
3 77 29 76
3 76 30 75
3 75 31 74
3 74 2 4
3 67 4 5
3 60 5 6
3 53 6 7
3 8 53 7
3 9 46 8
3 10 39 9
3 2 83 4
3 0 89 81
3 9 87 88
3 6 86 7
3 4 84 5
3 10 88 89
3 8 86 87
3 5 85 6
3 88 98 89
3 86 96 87
3 85 93 94
3 83 91 92
3 89 90 81
3 87 97 88
3 86 94 95
3 84 92 93
3 32 33 40
3 33 34 41
3 34 35 42
3 35 36 43
3 36 37 44
3 37 38 45
3 39 40 47
3 40 41 48
3 41 42 49
3 42 43 50
3 43 44 51
3 44 45 52
3 46 47 54
3 47 48 55
3 48 49 56
3 49 50 57
3 50 51 58
3 51 52 59
3 54 61 60
3 55 62 61
3 56 63 62
3 57 64 63
3 58 65 64
3 59 66 65
3 61 68 67
3 62 69 68
3 63 70 69
3 64 71 70
3 65 72 71
3 66 73 72
3 68 75 74
3 69 76 75
3 70 77 76
3 71 78 77
3 72 79 78
3 73 80 79
3 0 11 32
3 11 12 33
3 12 13 34
3 13 14 35
3 14 15 36
3 15 16 37
3 16 17 38
3 17 1 18
3 38 18 19
3 45 19 20
3 52 20 21
3 21 22 66
3 22 23 73
3 23 24 80
3 24 3 25
3 80 25 26
3 79 26 27
3 78 27 28
3 77 28 29
3 76 29 30
3 75 30 31
3 74 31 2
3 67 74 4
3 60 67 5
3 53 60 6
3 8 46 53
3 9 39 46
3 10 32 39
3 2 82 83
3 0 10 89
3 9 8 87
3 6 85 86
3 4 83 84
3 10 9 88
3 8 7 86
3 5 84 85
3 88 97 98
3 86 95 96
3 85 84 93
3 83 82 91
3 89 98 90
3 87 96 97
3 86 85 94
3 84 83 92
