ply
format ascii 1.0
comment Created in Blender version 5.1.2
element vertex 57
property float x
property float y
property float z
property uchar red
property uchar green
property uchar blue
property uchar alpha
element face 111
property list uchar uint vertex_indices
end_header
0.832709 0 0 227 231 241 255
0.6378921 0.5352551 -4.0410633e-08 227 231 241 255
0.14459842 0.8200583 -6.191268e-08 227 231 241 255
-0.4163545 0.7211472 -5.4445096e-08 227 231 241 255
-0.78249055 0.28480327 -2.150205e-08 229 233 242 255
-0.78249055 -0.28480327 2.150205e-08 231 234 243 255
-0.4163545 -0.7211472 5.4445096e-08 175 167 165 255
0.14459842 -0.8200583 6.191268e-08 227 231 241 255
0.6378921 -0.5352551 4.0410633e-08 227 231 241 255
0.832709 0 0 230 234 242 255
0.6378921 0.5352551 -4.0410633e-08 236 238 245 255
0.14459842 0.8200583 -6.191268e-08 230 233 242 255
-0.4163545 0.7211472 -5.4445096e-08 240 242 247 255
-0.78249055 0.28480327 -2.150205e-08 236 239 245 255
-0.78249055 -0.28480327 2.150205e-08 236 238 245 255
-0.4163545 -0.7211472 5.4445096e-08 206 201 200 255
0.14459842 -0.8200583 6.191268e-08 230 234 242 255
0.6378921 -0.5352551 4.0410633e-08 239 241 246 255
0.8723656 3.8860417e-09 -0.26161036 175 167 165 255
0.6682708 0.5607458 -0.2616104 175 167 165 255
0.15148479 0.8591123 -0.26161042 175 167 165 255
-0.43618262 0.7554906 -0.26161042 175 167 165 255
-0.8197553 0.29836658 -0.2616104 175 167 165 255
-0.8197553 -0.29836658 -0.26161033 175 167 165 255
-0.43618262 -0.7554906 -0.2616103 175 167 165 255
0.15148479 -0.8591122 -0.2616103 175 167 165 255
0.6682708 -0.5607457 -0.26161033 175 167 165 255
0.9638675 5.842537e-08 -0.26161036 176 168 166 255
0.7383654 0.6195621 -0.26161042 175 167 165 255
0.16737403 0.949224 -0.26161042 175 167 165 255
-0.48193341 0.83473355 -0.26161042 175 167 165 255
-0.9057387 0.3296621 -0.2616104 175 167 165 255
-0.9057387 -0.32966197 -0.26161033 175 167 165 255
-0.48193341 -0.8347335 -0.2616103 175 167 165 255
0.16737403 -0.9492238 -0.2616103 175 167 165 255
0.7383654 -0.6195619 -0.2616103 175 167 165 255
-0.5994225 0.5029752 -3.797357e-08 247 248 251 255
-0.78249055 0 0 240 122 126 255
-0.5994225 -0.5029752 3.797357e-08 224 223 225 255
-0.41635448 0 0 254 254 254 255
-0.5994225 0 0 241 5 13 255
-0.5078885 0.6120612 -4.6209333e-08 236 239 246 255
-0.78249055 0.07229675 -5.458253e-09 239 241 247 255
-0.6909566 -0.39388928 2.9737812e-08 229 229 234 255
-0.44950923 -0.022760276 1.718353e-09 254 254 254 255
-0.6909566 0.39388928 -2.9737812e-08 237 240 246 255
-0.78249055 -0.07229675 5.458253e-09 242 244 248 255
-0.5078885 -0.6120612 4.6209333e-08 216 213 214 255
-0.44950923 0.022760276 -1.718353e-09 254 254 254 255
-0.5078885 0 0 241 5 13 255
-0.6909566 0 0 241 5 13 255
-0.5829742 -0.06664254 5.0313718e-09 254 254 254 255
-0.5829742 0.06664254 -5.0313718e-09 254 254 254 255
-0.66794896 0.06590254 -4.9755036e-09 254 254 254 255
-0.66794896 -0.06590254 4.9755036e-09 254 254 254 255
-0.51418966 0.058820523 -4.440826e-09 254 254 254 255
-0.51418966 -0.058820523 4.440826e-09 254 254 254 255
3 49 44 56
3 41 45 22
3 0 10 9
3 7 17 16
3 5 14 42
3 1 11 10
3 8 9 17
3 5 43 14
3 2 12 11
3 6 16 15
3 3 4 45
3 10 18 9
3 17 25 16
3 46 14 22
3 11 19 10
3 9 26 17
3 38 15 23
3 11 21 20
3 16 24 15
3 21 31 30
3 19 27 18
3 26 34 25
3 23 31 22
3 19 29 28
3 18 35 26
3 24 32 23
3 20 30 29
3 25 33 24
3 41 48 55
3 54 40 51
3 45 52 53
3 53 40 50
3 42 50 37
3 13 53 42
3 43 51 38
3 14 54 43
3 46 50 54
3 49 48 39
3 52 49 40
3 36 55 52
3 47 44 15
3 38 56 47
3 51 49 56
3 17 39 12
3 49 39 44
3 21 12 41
3 41 36 45
3 45 13 22
3 22 21 41
3 0 1 10
3 7 8 17
3 13 4 5
3 14 46 37
3 42 13 5
3 14 37 42
3 1 2 11
3 8 0 9
3 6 15 47
3 47 38 43
3 6 47 43
3 5 6 43
3 2 3 12
3 6 7 16
3 4 13 45
3 41 12 3
3 45 41 3
3 10 19 18
3 17 26 25
3 22 13 42
3 22 42 37
3 14 23 22
3 22 37 46
3 11 20 19
3 9 18 26
3 23 14 43
3 38 47 15
3 23 43 38
3 15 24 23
3 11 12 21
3 16 25 24
3 21 22 31
3 19 28 27
3 26 35 34
3 23 32 31
3 19 20 29
3 18 27 35
3 24 33 32
3 20 21 30
3 25 34 33
3 41 12 48
3 54 50 40
3 45 36 52
3 53 52 40
3 42 53 50
3 13 45 53
3 43 54 51
3 14 46 54
3 46 37 50
3 49 55 48
3 52 55 49
3 36 41 55
3 47 56 44
3 38 51 56
3 51 40 49
3 12 11 10
3 10 9 17
3 17 16 15
3 15 44 39
3 39 48 12
3 12 10 17
3 17 15 39
