ply
format ascii 1.0
comment Created in Blender version 5.1.2
element vertex 117
property float x
property float y
property float z
property uchar red
property uchar green
property uchar blue
property uchar alpha
element face 182
property list uchar uint vertex_indices
end_header
-13.143383 1.5004785 3.3282824 0 87 157 255
-13.142752 1.5719025 3.3142395 121 109 100 255
-10.859274 1.5004785 3.4309764 0 87 157 255
-10.858643 1.5719025 3.4169333 122 110 97 255
-13.291481 2.1494298 6.622247 0 87 157 255
-13.29085 2.220854 6.6082044 127 129 142 255
-11.007372 2.1494298 6.7249413 93 121 166 255
-11.00674 2.220854 6.7108984 143 133 126 255
-10.794373 1.5390296 3.426299 0 87 157 255
-10.892794 2.4467268 6.6715217 0 87 157 255
-10.94247 2.1879811 6.7202644 93 121 166 255
-10.785934 1.5710336 3.4203734 19 88 156 255
-10.744697 1.7977754 3.3775566 0 87 157 255
-10.934032 2.219985 6.7143383 93 121 166 255
-10.817404 1.7986442 3.3741164 122 110 97 255
-10.904033 2.7594404 6.606744 69 95 141 255
-10.755936 2.1104891 3.312779 0 87 157 255
-10.828643 2.111358 3.3093386 122 110 97 255
-10.817587 2.082799 4.11912 136 149 175 255
-10.833908 2.064065 4.157495 41 94 159 255
-10.82185 2.0138724 4.150012 14 87 156 255
-10.817719 2.0080354 4.1048584 122 110 97 255
-10.827225 2.0546203 4.0844355 143 133 126 255
-10.997685 2.0929182 4.0682983 172 169 166 255
-10.997765 2.0730476 4.1051626 189 189 189 255
-10.991769 2.0322444 4.097883 189 189 189 255
-10.987986 2.0268972 4.05652 189 189 189 255
-10.991642 2.0643957 4.0382357 172 169 166 255
-11.172353 2.0407925 4.111123 189 189 189 255
-11.158437 2.0271993 4.1491137 189 189 189 255
-11.129681 1.9963876 4.1423736 189 189 189 255
-11.125825 1.990938 4.100218 189 189 189 255
-11.152198 2.0183816 4.080904 189 189 189 255
-11.258569 1.8839657 4.142598 189 189 189 255
-11.238992 1.8839122 4.1763697 189 189 189 255
-11.20161 1.875761 4.16863 189 189 189 255
-11.198083 1.870777 4.1300755 189 189 189 255
-11.233285 1.8758478 4.113987 189 189 189 255
-11.239815 1.7090496 4.2318788 180 182 186 255
-11.222007 1.7228954 4.2636003 175 178 184 255
-11.188709 1.7145506 4.257141 174 177 184 255
-11.185193 1.7095808 4.218696 189 189 189 255
-11.216317 1.7148539 4.201395 189 189 189 255
-10.856679 2.2472866 4.9886127 156 149 144 255
-10.873 2.2285526 5.0269876 156 149 144 255
-10.860942 2.17836 5.0195045 143 136 128 255
-10.856812 2.172523 4.9743514 156 149 144 255
-10.866317 2.2191079 4.953928 156 149 144 255
-11.038484 2.2645812 4.975721 188 188 188 255
-11.038562 2.2447107 5.012585 181 180 180 255
-11.032567 2.2039075 5.0053062 164 160 157 255
-11.028783 2.1985602 4.963943 173 170 168 255
-11.032439 2.2360587 4.945658 187 187 187 255
-11.210608 2.2017524 4.961969 189 189 189 255
-11.1966915 2.1881592 4.999959 189 189 189 255
-11.167935 2.1573477 4.9932194 189 189 189 255
-11.164079 2.151898 4.951063 189 189 189 255
-11.190452 2.1793416 4.9317493 189 189 189 255
-11.295972 2.0413475 4.974529 189 189 189 255
-11.276396 2.0412939 5.0083003 189 189 189 255
-11.239014 2.0331428 5.0005608 189 189 189 255
-11.235487 2.0281587 4.962006 189 189 189 255
-11.270689 2.0332294 4.945917 189 189 189 255
-11.274352 1.8543705 5.0000544 189 189 189 255
-11.256544 1.8682162 5.0317764 189 189 189 255
-11.223247 1.8598714 5.025317 189 189 189 255
-11.21973 1.8549016 4.986872 189 189 189 255
-11.2508545 1.8601747 4.969571 189 189 189 255
-10.893562 2.402092 5.808962 122 110 98 255
-10.9098835 2.3833582 5.847337 122 110 97 255
-10.897825 2.3331656 5.839854 122 110 97 255
-10.893695 2.3273287 5.7947006 122 110 97 255
-10.9032 2.3739135 5.774277 138 128 121 255
-11.076975 2.42614 5.8318567 156 149 144 255
-11.077054 2.4062693 5.868721 156 149 144 255
-11.071059 2.365466 5.8614416 156 149 144 255
-11.067275 2.360119 5.820078 156 149 144 255
-11.070931 2.3976176 5.8017936 156 149 144 255
-11.246699 2.353238 5.7647247 189 189 189 255
-11.232783 2.339645 5.8027153 189 189 189 255
-11.204027 2.3088334 5.795975 185 184 184 255
-11.2001705 2.3033836 5.7538195 180 179 178 255
-11.226543 2.3308272 5.734505 189 189 189 255
-11.331262 2.1894655 5.7594385 189 189 189 255
-11.311686 2.1894119 5.7932105 189 189 189 255
-11.274303 2.1812608 5.7854705 189 189 189 255
-11.270777 2.1762767 5.746916 189 189 189 255
-11.305979 2.1813476 5.7308273 189 189 189 255
-11.306937 1.9911375 5.7248135 189 189 189 255
-11.289129 2.0049832 5.756535 189 189 189 255
-11.255832 1.9966385 5.750076 189 189 189 255
-11.2523155 1.9916686 5.711631 189 189 189 255
-11.28344 1.9969418 5.6943297 189 189 189 255
-13.159383 1.7065217 3.1064763 126 115 104 255
-13.164391 1.7677373 3.0940225 0 87 157 255
-10.761324 2.0414128 3.1682699 170 164 159 255
-10.766333 2.1026285 3.155816 0 87 157 255
-13.231017 2.266984 6.63936 158 149 143 255
-13.2344 2.3083386 6.6309466 0 87 157 255
-10.893293 2.5331907 6.6588736 126 115 104 255
-10.898302 2.5944061 6.6464195 0 87 157 255
-13.186063 1.5910418 3.1294644 223 223 223 255
-13.187546 1.6091673 3.1257768 160 160 160 255
-10.803459 1.7715628 3.2077913 223 223 223 255
-10.804941 1.7896883 3.204104 223 223 223 255
-13.2635565 2.2408736 6.5766525 216 216 216 255
-13.264559 2.2531185 6.5741615 160 160 160 255
-10.930355 2.458774 6.606121 223 223 223 255
-10.931838 2.4768996 6.602433 160 160 160 255
-13.199984 1.7116824 3.1114767 223 223 223 255
-13.202296 1.7298443 3.1084557 160 160 160 255
-10.828169 1.9982363 3.200414 223 223 223 255
-10.8304825 2.0163982 3.197393 223 223 223 255
-13.307207 2.2299218 6.580097 216 216 216 255
-13.30877 2.2421913 6.5780563 160 160 160 255
-10.986458 2.5533247 6.6215005 223 223 223 255
-10.988771 2.5714865 6.6184797 160 160 160 255
3 1 2 0
3 7 4 6
3 5 0 4
3 6 0 2
3 3 5 7
3 8 13 10
3 2 3 8
3 7 6 10
3 2 10 6
3 8 3 11
3 7 10 13
3 11 9 13
3 11 14 12
3 12 15 9
3 14 16 12
3 18 24 19
3 19 25 20
3 25 21 20
3 26 22 21
3 22 23 18
3 28 24 23
3 24 30 25
3 25 31 26
3 31 27 26
3 32 23 27
3 33 29 28
3 29 35 30
3 30 36 31
3 31 37 32
3 37 28 32
3 38 34 33
3 39 35 34
3 35 41 36
3 36 42 37
3 42 33 37
3 48 44 43
3 44 50 45
3 45 51 46
3 51 47 46
3 47 48 43
3 48 54 49
3 49 55 50
3 55 51 50
3 56 52 51
3 57 48 52
3 53 59 54
3 59 55 54
3 60 56 55
3 61 57 56
3 57 58 53
3 58 64 59
3 64 60 59
3 60 66 61
3 61 67 62
3 67 58 62
3 73 69 68
3 69 75 70
3 70 76 71
3 76 72 71
3 77 68 72
3 73 79 74
3 79 75 74
3 80 76 75
3 81 77 76
3 77 78 73
3 78 84 79
3 84 80 79
3 85 81 80
3 86 82 81
3 82 83 78
3 83 89 84
3 89 85 84
3 90 86 85
3 86 92 87
3 87 88 83
3 1 3 2
3 7 5 4
3 5 1 0
3 6 4 0
3 3 1 5
3 8 11 13
3 2 8 10
3 11 12 9
3 11 3 14
3 12 16 15
3 14 17 16
3 18 23 24
3 19 24 25
3 25 26 21
3 26 27 22
3 22 27 23
3 28 29 24
3 24 29 30
3 25 30 31
3 31 32 27
3 32 28 23
3 33 34 29
3 29 34 35
3 30 35 36
3 31 36 37
3 37 33 28
3 38 39 34
3 39 40 35
3 35 40 41
3 36 41 42
3 42 38 33
3 48 49 44
3 44 49 50
3 45 50 51
3 51 52 47
3 47 52 48
3 48 53 54
3 49 54 55
3 55 56 51
3 56 57 52
3 57 53 48
3 53 58 59
3 59 60 55
3 60 61 56
3 61 62 57
3 57 62 58
3 58 63 64
3 64 65 60
3 60 65 66
3 61 66 67
3 67 63 58
3 73 74 69
3 69 74 75
3 70 75 76
3 76 77 72
3 77 73 68
3 73 78 79
3 79 80 75
3 80 81 76
3 81 82 77
3 77 82 78
3 78 83 84
3 84 85 80
3 85 86 81
3 86 87 82
3 82 87 83
3 83 88 89
3 89 90 85
3 90 91 86
3 86 91 92
3 87 92 88
3 94 95 93
3 95 100 99
3 99 98 97
3 98 93 97
3 99 93 95
3 100 94 98
3 94 96 95
3 95 96 100
3 99 100 98
3 98 94 93
3 99 97 93
3 100 96 94
3 101 104 103
3 104 107 103
3 107 106 105
3 106 101 105
3 103 105 101
3 108 102 106
3 101 102 104
3 104 108 107
3 107 108 106
3 106 102 101
3 103 107 105
3 108 104 102
3 109 112 111
3 112 115 111
3 115 114 113
3 114 109 113
3 111 113 109
3 116 110 114
3 109 110 112
3 112 116 115
3 115 116 114
3 114 110 109
3 111 115 113
3 116 112 110
