ply
format ascii 1.0
comment Created in Blender version 5.1.2
element vertex 212
property float x
property float y
property float z
property uchar red
property uchar green
property uchar blue
property uchar alpha
property float instance_index
property float instance_random_x
property float instance_random_y
property float instance_random_z
element face 382
property list uchar uint vertex_indices
element edge 1
property int vertex1
property int vertex2
end_header
-14.546561 1.2540264 1.6446624 199 204 219 255 0 0 0 0
-15.53689 1.3736285 2.649952 199 204 219 255 0 0 0 0
-14.928925 1.2635294 1.7245412 199 204 219 255 0 0 0 0
-15.251397 1.2895966 1.9436398 199 204 219 255 0 0 0 0
-15.464886 1.328258 2.2686005 199 204 219 255 0 0 0 0
-15.53689 0.87497604 2.709278 182 186 200 255 0 0 0 0
-12.77033 0.8968453 1.6786652 182 186 200 255 0 0 0 0
-15.464886 0.8296056 2.3279266 182 186 200 255 0 0 0 0
-15.26286 0.78150105 1.992796 182 186 200 255 0 0 0 0
-14.889521 0.76236874 1.7550893 182 186 200 255 0 0 0 0
-0.8238683 1.3544915 2.4890914 199 204 219 255 0 0 0 0
-1.8362474 1.2374942 1.5056977 199 204 219 255 0 0 0 0
-0.9043107 1.3093193 2.1094065 199 204 219 255 0 0 0 0
-1.1249533 1.2712224 1.7891922 199 204 219 255 0 0 0 0
-1.4522057 1.2460008 1.577198 199 204 219 255 0 0 0 0
-1.8362474 0.7388417 1.5650239 182 186 200 255 0 0 0 0
-0.8238683 0.855839 2.5484176 182 186 200 255 0 0 0 0
-1.4522057 0.74734837 1.6365242 182 186 200 255 0 0 0 0
-1.1249533 0.77256995 1.8485184 182 186 200 255 0 0 0 0
-0.9043107 0.8106668 2.1687326 182 186 200 255 0 0 0 0
-14.623987 2.2974577 10.41499 182 186 200 255 0 0 0 0
-13.722212 2.414455 11.398384 182 186 200 255 0 0 0 0
-14.552334 2.34263 10.794675 182 186 200 255 0 0 0 0
-14.355796 2.3807268 11.114889 182 186 200 255 0 0 0 0
-14.064297 2.4059482 11.326883 182 186 200 255 0 0 0 0
-13.722212 1.9158025 11.45771 182 186 200 255 0 0 0 0
-14.623987 1.7988052 10.474317 182 186 200 255 0 0 0 0
-14.064297 1.907296 11.3862095 182 186 200 255 0 0 0 0
-14.355796 1.8820744 11.174215 182 186 200 255 0 0 0 0
-14.552334 1.8439775 10.854001 182 186 200 255 0 0 0 0
-2.4005241 2.2997866 11.271095 182 186 200 255 0 0 0 0
-1.5183902 2.1801846 10.265806 182 186 200 255 0 0 0 0
-2.0599341 2.2902832 11.1912155 182 186 200 255 0 0 0 0
-1.7726932 2.2642164 10.972118 182 186 200 255 0 0 0 0
-1.5825276 2.225555 10.647158 182 186 200 255 0 0 0 0
-1.5183902 1.7796682 10.3134575 182 186 200 255 0 0 0 0
-2.4005241 1.8992704 11.318747 182 186 200 255 0 0 0 0
-1.5825276 1.8250387 10.694809 182 186 200 255 0 0 0 0
-1.7726932 1.8637002 11.019769 182 186 200 255 0 0 0 0
-2.0599341 1.8897669 11.238867 182 186 200 255 0 0 0 0
-0.9415388 1.767338 6.377449 182 186 200 255 0 0 0 0
-0.9355817 1.3177536 6.4309373 182 186 200 255 0 0 0 0
-8.061368 2.3571208 11.33474 182 186 200 255 0 0 0 0
-8.061368 1.9075365 11.388227 182 186 200 255 0 0 0 0
-15.27208 1.3368907 6.5917974 182 186 200 255 0 0 0 0
-15.263894 1.8355432 6.5324717 182 186 200 255 0 0 0 0
-8.191404 0.7471078 1.6345062 182 186 200 255 0 0 0 0
-8.191404 1.2457602 1.57518 190 194 208 255 0 0 0 0
-13.957464 1.285808 1.9284878 199 204 219 255 0 0 0 0
-14.884643 1.393995 2.83783 182 186 200 255 0 0 0 0
-14.31053 1.2938364 1.9959693 199 204 219 255 0 0 0 0
-14.610712 1.3172157 2.1924787 198 203 218 255 0 0 0 0
-14.812315 1.3523867 2.4881008 182 186 200 255 0 0 0 0
-1.3454123 1.4039109 2.9211674 182 186 200 255 0 0 0 0
-2.261168 1.2943742 2.0004816 182 186 200 255 0 0 0 0
-1.4133692 1.3621998 2.570575 182 186 200 255 0 0 0 0
-1.6112638 1.3267362 2.2724938 182 186 200 255 0 0 0 0
-1.9089708 1.3029189 2.0723038 182 186 200 255 0 0 0 0
-14.159423 2.244122 9.98338 182 186 200 255 0 0 0 0
-13.343694 2.3734646 10.901648 182 186 200 255 0 0 0 0
-14.09889 2.285833 10.333973 182 186 200 255 0 0 0 0
-13.922597 2.33868 10.629932 182 186 200 255 0 0 0 0
-13.657364 2.40798 10.824568 182 186 200 255 0 0 0 0
-2.9252615 2.2719216 10.986805 182 186 200 255 0 0 0 0
-2.0993786 2.1637344 10.077462 182 186 200 255 0 0 0 0
-2.6107688 2.2638931 10.919323 182 186 200 255 0 0 0 0
-2.343381 2.2405138 10.722815 182 186 200 255 0 0 0 0
-2.163804 2.2053428 10.427191 182 186 200 255 0 0 0 0
-1.5904012 1.7838227 6.499315 182 186 200 255 0 0 0 0
-8.134488 2.31279 10.945436 182 186 200 255 0 0 0 0
-14.669359 1.8190584 6.4106054 182 186 200 255 0 0 0 0
-8.109316 1.290091 1.9644852 199 204 219 255 0 0 0 0
-13.054564 1.3624883 2.6024022 182 186 200 255 0 0 0 0
-13.84289 1.4538164 3.370041 182 186 200 255 0 0 0 0
-13.353903 1.3691636 2.6585107 182 186 200 255 0 0 0 0
-13.608831 1.3888639 2.8240974 182 186 200 255 0 0 0 0
-13.78054 1.41859 3.073953 182 186 200 255 0 0 0 0
-2.3721404 1.4670721 3.4814525 182 186 200 255 0 0 0 0
-3.1451921 1.3739398 2.6986494 182 186 200 255 0 0 0 0
-2.4286442 1.4317085 3.1842105 182 186 200 255 0 0 0 0
-2.5953975 1.4015912 2.9310672 182 186 200 255 0 0 0 0
-2.8470159 1.3813055 2.7605603 182 186 200 255 0 0 0 0
-13.244866 2.1740634 9.423916 182 186 200 255 0 0 0 0
-12.55614 2.3191285 10.20047 182 186 200 255 0 0 0 0
-13.194536 2.2094274 9.721158 182 186 200 255 0 0 0 0
-13.04599 2.2479181 9.973278 182 186 200 255 0 0 0 0
-12.821735 2.3310823 10.136166 182 186 200 255 0 0 0 0
-3.7312193 2.2196956 10.309807 182 186 200 255 0 0 0 0
-3.0269608 2.168242 9.537926 182 186 200 255 0 0 0 0
-3.4628205 2.2047427 10.2549 182 186 200 255 0 0 0 0
-3.2355099 2.220679 10.085255 182 186 200 255 0 0 0 0
-3.0823698 2.2224488 9.831844 182 186 200 255 0 0 0 0
-2.6895013 1.7889411 6.512942 182 186 200 255 0 0 0 0
-8.142895 2.234667 10.259394 182 186 200 255 0 0 0 0
-13.643066 1.8139399 6.396979 182 186 200 255 0 0 0 0
-8.099878 1.368214 2.6505258 182 186 200 255 0 0 0 0
-11.265583 1.5834749 4.2119327 182 186 200 255 0 0 0 0
-11.6854515 1.6143286 4.712521 182 186 200 255 0 0 0 0
-11.444262 1.6022122 4.2537117 182 186 200 255 0 0 0 0
-11.587768 1.6113424 4.363887 182 186 200 255 0 0 0 0
-11.672759 1.6127367 4.5253305 182 186 200 255 0 0 0 0
-4.7186275 1.5748929 4.4498672 182 186 200 255 0 0 0 0
-5.181321 1.519991 3.9884028 182 186 200 255 0 0 0 0
-4.7477336 1.5532285 4.267772 182 186 200 255 0 0 0 0
-4.846516 1.5351872 4.116131 182 186 200 255 0 0 0 0
-4.999238 1.5235158 4.018029 182 186 200 255 0 0 0 0
-11.206017 2.0516608 8.457236 182 186 200 255 0 0 0 0
-10.759883 2.1065626 8.918701 182 186 200 255 0 0 0 0
-11.167123 2.0733252 8.639332 182 186 200 255 0 0 0 0
-11.068682 2.0913663 8.790972 182 186 200 255 0 0 0 0
-10.925678 2.1030376 8.889073 182 186 200 255 0 0 0 0
-5.30133 2.0321264 8.696621 182 186 200 255 0 0 0 0
-4.8873825 1.972956 8.199278 182 186 200 255 0 0 0 0
-5.137986 2.026968 8.653263 182 186 200 255 0 0 0 0
-5.001959 2.0139117 8.543522 182 186 200 255 0 0 0 0
-4.9139585 1.9949453 8.384104 182 186 200 255 0 0 0 0
-4.838031 1.7739245 6.3245726 182 186 200 255 0 0 0 0
-8.030606 2.0693445 8.807661 182 186 200 255 0 0 0 0
-11.398359 1.8289567 6.585348 182 186 200 255 0 0 0 0
-8.22547 1.5335367 4.102259 182 186 200 255 0 0 0 0
-10.577221 1.3653512 2.6264641 182 186 200 255 0 0 0 0
-9.754926 1.5403094 4.1591873 182 186 200 255 0 0 0 0
-12.172265 1.4547852 3.4092588 182 186 200 255 0 0 0 0
-8.162909 1.4508753 3.3763926 182 186 200 255 0 0 0 0
-10.167587 1.4528303 3.3928256 182 186 200 255 0 0 0 0
-6.0585914 2.2085152 10.026155 182 186 200 255 0 0 0 0
-6.5443907 2.0915215 9.005892 182 186 200 255 0 0 0 0
-8.086751 2.1520057 9.533527 182 186 200 255 0 0 0 0
-5.0766716 2.1473393 9.505814 182 186 200 255 0 0 0 0
-6.301099 2.1732087 9.513666 182 186 200 255 0 0 0 0
-2.90809 2.0443344 8.018659 182 186 200 255 0 0 0 0
-4.8857822 1.8734403 7.2619247 182 186 200 255 0 0 0 0
-3.9573503 2.041883 8.871854 182 186 200 255 0 0 0 0
-3.802784 1.8673693 6.4086313 182 186 200 255 0 0 0 0
-3.9011211 1.9116579 7.6453056 182 186 200 255 0 0 0 0
-13.810613 1.6691132 4.879318 182 186 200 255 0 0 0 0
-11.545914 1.7176048 5.649404 182 186 200 255 0 0 0 0
-12.47311 1.8214483 6.4911633 182 186 200 255 0 0 0 0
-12.785664 1.5300345 4.04175 182 186 200 255 0 0 0 0
-12.654984 1.6757414 5.2664566 182 186 200 255 0 0 0 0
-2.1137023 0.31086573 3.4663336 122 125 136 255 0 0 0 0
-2.1137023 1.1743191 3.363606 122 125 136 255 0 0 0 0
-6.488619 0.31655613 3.5141654 122 125 136 255 0 0 0 0
-6.488619 1.1800095 3.411438 122 125 136 255 0 0 0 0
-2.1232758 0.2081444 2.602932 122 125 136 255 0 0 0 0
-2.1232758 1.0715978 2.5002046 122 125 136 255 0 0 0 0
-6.4981923 0.21383479 2.650764 122 125 136 255 0 0 0 0
-6.4981923 1.0772882 2.5480363 122 125 136 255 0 0 0 0
-6.769308 0.5170491 3.3492854 122 125 136 255 0 0 0 0
-6.769308 1.261152 3.2607572 122 125 136 255 0 0 0 0
-11.144224 0.4033891 3.4113166 122 125 136 255 0 0 0 0
-11.144224 1.2668425 3.308589 122 125 136 255 0 0 0 0
-6.774514 0.46118373 2.8797212 122 125 136 255 0 0 0 0
-6.774514 1.2052867 2.791193 122 125 136 255 0 0 0 0
-11.149431 0.3475237 2.9417524 122 125 136 255 0 0 0 0
-11.149431 1.2109771 2.839025 122 125 136 255 0 0 0 0
-9.683461 0.23323697 3.2712817 122 125 136 255 0 0 0 0
-9.560387 1.0028191 3.1694088 122 125 136 255 0 0 0 0
-13.935304 0.14505613 3.3199682 122 125 136 255 0 0 0 0
-13.935304 1.0085095 3.2172408 0 0 0 255 0 0 0 0
-9.688667 0.17737156 2.8017175 122 125 136 255 0 0 0 0
-9.720311 0.8874862 2.714 122 125 136 255 0 0 0 0
-13.940511 0.08919072 2.850404 122 125 136 255 0 0 0 0
-13.940511 0.9526441 2.7476766 122 125 136 255 0 0 0 0
-2.3583186 -0.51164275 2.91124 122 125 136 255 0 0 0 0
-2.3583186 -0.07905547 2.8597739 122 125 136 255 0 0 0 0
-2.560068 -0.5113803 2.913446 122 125 136 255 0 0 0 0
-2.560068 -0.07879305 2.8619797 122 125 136 255 0 0 0 0
-2.3612788 -0.543404 2.6442783 122 125 136 255 0 0 0 0
-2.3612788 -0.11081669 2.592812 122 125 136 255 0 0 0 0
-2.563028 -0.54314154 2.6464841 122 125 136 255 0 0 0 0
-2.563028 -0.11055426 2.595018 122 125 136 255 0 0 0 0
-2.7653816 0.07727313 2.7412736 122 125 136 255 0 0 0 0
-2.9179177 -0.2027926 2.8335862 122 125 136 255 0 0 0 0
-2.9372053 -0.25709876 2.6369567 122 125 136 255 0 0 0 0
-2.784669 0.022966981 2.5446444 122 125 136 255 0 0 0 0
-2.9618506 0.30663937 2.8097186 122 125 136 255 0 0 0 0
-3.2182338 0.25648695 2.8934326 122 125 136 255 0 0 0 0
-3.2661827 0.23333943 2.732717 122 125 136 255 0 0 0 0
-3.0097992 0.28349173 2.649003 122 125 136 255 0 0 0 0
-2.5690885 -4.6752434 11.156012 170 174 186 255 0 0.024333188 0.27238283 0.6861445
-2.2750874 1.8304939 10.394635 122 125 136 255 0 0.024333188 0.27238283 0.6861445
-3.1191545 -4.674453 11.162659 170 174 186 255 0 0.024333188 0.27238283 0.6861445
-2.8543196 1.8313266 10.401634 122 125 136 255 0 0.024333188 0.27238283 0.6861445
-2.575144 -4.7470655 10.552325 170 174 186 255 0 0.024333188 0.27238283 0.6861445
-2.2814643 1.7548636 9.758941 122 125 136 255 0 0.024333188 0.27238283 0.6861445
-3.1252108 -4.746275 10.558972 170 174 186 255 0 0.024333188 0.27238283 0.6861445
-2.860697 1.7556963 9.76594 122 125 136 255 0 0.024333188 0.27238283 0.6861445
-1.7439089 -5.566341 3.666089 170 174 186 255 1 0.19235693 0.63152885 0.67525965
-1.7439095 0.9379143 2.8922591 122 125 136 255 1 0.19235693 0.63152885 0.67525965
-2.3840864 -5.5655084 3.673088 170 174 186 255 1 0.19235693 0.63152885 0.67525965
-2.3840868 0.938747 2.8992581 122 125 136 255 1 0.19235693 0.63152885 0.67525965
-1.7509575 -5.641971 3.030395 170 174 186 255 1 0.19235693 0.63152885 0.67525965
-1.750958 0.86228395 2.256565 122 125 136 255 1 0.19235693 0.63152885 0.67525965
-2.391135 -5.6411386 3.037394 170 174 186 255 1 0.19235693 0.63152885 0.67525965
-2.3911355 0.8631166 2.263564 122 125 136 255 1 0.19235693 0.63152885 0.67525965
-13.1028595 -4.660101 11.283297 170 174 186 255 0 0.024333188 0.27238283 0.6861445
-13.367374 1.8464395 10.528669 122 125 136 255 0 0.024333188 0.27238283 0.6861445
-13.6529255 -4.65931 11.289944 170 174 186 255 0 0.024333188 0.27238283 0.6861445
-13.946608 1.8472722 10.535668 122 125 136 255 0 0.024333188 0.27238283 0.6861445
-13.108917 -4.731923 10.679611 170 174 186 255 0 0.024333188 0.27238283 0.6861445
-13.373753 1.7708092 9.892975 122 125 136 255 0 0.024333188 0.27238283 0.6861445
-13.658981 -4.7311325 10.686257 170 174 186 255 0 0.024333188 0.27238283 0.6861445
-13.952984 1.7716417 9.899974 122 125 136 255 0 0.024333188 0.27238283 0.6861445
-14.003307 -5.5503955 3.8001237 170 174 186 255 1 0.19235693 0.63152885 0.67525965
-14.003307 0.95385987 3.0262938 122 125 136 255 1 0.19235693 0.63152885 0.67525965
-14.643484 -5.5495625 3.8071227 170 174 186 255 1 0.19235693 0.63152885 0.67525965
-14.643486 0.9546925 3.0332928 122 125 136 255 1 0.19235693 0.63152885 0.67525965
-14.010355 -5.6260257 3.1644297 170 174 186 255 1 0.19235693 0.63152885 0.67525965
-14.010357 0.8782295 2.3905997 122 125 136 255 1 0.19235693 0.63152885 0.67525965
-14.650534 -5.625193 3.1714287 170 174 186 255 1 0.19235693 0.63152885 0.67525965
-14.650534 0.8790621 2.3975987 122 125 136 255 1 0.19235693 0.63152885 0.67525965
3 0 9 2
3 2 8 3
3 3 7 4
3 7 1 4
3 31 37 35
3 34 38 37
3 33 39 38
3 32 36 39
3 16 12 10
3 19 13 12
3 18 14 13
3 17 11 14
3 26 22 20
3 29 23 22
3 28 24 23
3 27 21 24
3 44 1 5
3 47 15 46
3 40 53 68
3 7 19 43
3 41 31 35
3 42 25 43
3 16 40 41
3 30 43 36
3 26 45 44
3 6 47 46
3 70 82 94
3 22 61 60
3 32 66 65
3 11 57 14
3 3 52 51
3 0 50 48
3 31 67 34
3 45 58 70
3 12 56 55
3 31 68 64
3 45 49 1
3 24 61 23
3 30 65 63
3 20 60 58
3 1 52 4
3 47 54 11
3 33 67 66
3 47 48 71
3 14 56 13
3 42 59 21
3 10 55 53
3 2 51 50
3 42 63 69
3 21 62 24
3 78 105 81
3 48 74 72
3 59 86 62
3 53 79 77
3 48 120 95
3 50 75 74
3 70 135 73
3 56 79 55
3 51 76 75
3 71 78 54
3 57 80 56
3 49 76 52
3 63 125 93
3 54 81 57
3 64 91 67
3 68 77 92
3 58 84 82
3 67 90 66
3 68 130 88
3 60 85 84
3 65 90 89
3 69 83 59
3 62 85 61
3 63 89 87
3 118 117 131
3 88 112 115
3 77 116 133
3 82 108 106
3 91 114 90
3 133 131 134
3 85 108 84
3 89 114 113
3 93 127 107
3 86 109 85
3 89 111 128
3 82 118 137
3 74 96 122
3 83 110 86
3 77 103 101
3 124 96 121
3 74 99 98
3 137 136 139
3 80 103 79
3 76 99 75
3 95 119 102
3 81 104 80
3 73 97 100
3 129 111 126
3 123 121 119
3 95 124 123
3 120 122 124
3 127 126 117
3 93 129 127
3 125 128 129
3 134 112 132
3 130 132 88
3 92 134 130
3 139 97 138
3 135 138 73
3 94 139 135
3 0 6 9
3 2 9 8
3 3 8 7
3 7 5 1
3 31 34 37
3 34 33 38
3 33 32 39
3 32 30 36
3 16 19 12
3 19 18 13
3 18 17 14
3 17 15 11
3 26 29 22
3 29 28 23
3 28 27 24
3 27 25 21
3 44 45 1
3 47 11 15
3 40 10 53
3 43 25 27
3 27 28 29
3 29 26 44
3 44 5 7
3 7 8 9
3 9 6 46
3 46 15 17
3 17 18 19
3 19 16 41
3 41 35 37
3 37 38 39
3 39 36 43
3 43 27 29
3 29 44 7
3 7 9 46
3 46 17 19
3 19 41 37
3 37 39 43
3 43 29 7
3 7 46 19
3 19 37 43
3 41 40 31
3 42 21 25
3 16 10 40
3 30 42 43
3 26 20 45
3 6 0 47
3 70 58 82
3 22 23 61
3 32 33 66
3 11 54 57
3 3 4 52
3 0 2 50
3 31 64 67
3 45 20 58
3 12 13 56
3 31 40 68
3 45 70 49
3 24 62 61
3 30 32 65
3 20 22 60
3 1 49 52
3 47 71 54
3 33 34 67
3 47 0 48
3 14 57 56
3 42 69 59
3 10 12 55
3 2 3 51
3 42 30 63
3 21 59 62
3 78 102 105
3 48 50 74
3 59 83 86
3 53 55 79
3 95 71 48
3 48 72 120
3 50 51 75
3 73 49 70
3 70 94 135
3 56 80 79
3 51 52 76
3 71 95 78
3 57 81 80
3 49 73 76
3 93 69 63
3 63 87 125
3 54 78 81
3 64 88 91
3 68 53 77
3 58 60 84
3 67 91 90
3 88 64 68
3 68 92 130
3 60 61 85
3 65 66 90
3 69 93 83
3 62 86 85
3 63 65 89
3 121 96 98
3 98 99 100
3 100 97 136
3 118 106 108
3 100 136 118
3 121 98 100
3 105 102 119
3 119 121 100
3 118 108 109
3 119 100 118
3 104 105 119
3 101 103 104
3 116 101 104
3 104 119 118
3 118 109 110
3 110 107 117
3 117 126 111
3 111 113 114
3 114 115 112
3 131 116 104
3 114 112 131
3 117 111 114
3 118 110 117
3 131 104 118
3 117 114 131
3 115 91 88
3 88 132 112
3 133 92 77
3 77 101 116
3 82 84 108
3 91 115 114
3 133 116 131
3 85 109 108
3 89 90 114
3 107 83 93
3 127 117 107
3 86 110 109
3 128 87 89
3 89 113 111
3 137 94 82
3 82 106 118
3 122 72 74
3 74 98 96
3 83 107 110
3 77 79 103
3 124 122 96
3 74 75 99
3 137 118 136
3 80 104 103
3 76 100 99
3 102 78 95
3 95 123 119
3 81 105 104
3 100 76 73
3 73 138 97
3 129 128 111
3 123 124 121
3 95 120 124
3 120 72 122
3 127 129 126
3 93 125 129
3 125 87 128
3 134 131 112
3 130 134 132
3 92 133 134
3 139 136 97
3 135 139 138
3 94 137 139
3 141 142 140
3 143 146 142
3 147 144 146
3 145 140 144
3 146 140 142
3 143 145 147
3 148 151 150
3 151 154 150
3 155 152 154
3 153 148 152
3 154 148 150
3 151 153 155
3 163 160 162
3 161 156 160
3 158 160 156
3 141 143 142
3 143 147 146
3 147 145 144
3 145 141 140
3 146 144 140
3 143 141 145
3 148 149 151
3 151 155 154
3 155 153 152
3 153 149 148
3 154 152 148
3 151 149 153
3 163 161 160
3 161 157 156
3 158 162 160
3 165 166 164
3 170 175 171
3 171 168 170
3 169 164 168
3 170 164 166
3 167 169 171
3 174 179 175
3 170 173 174
3 171 172 167
3 166 172 173
3 177 179 178
3 173 178 174
3 172 179 176
3 173 176 177
3 165 167 166
3 170 174 175
3 171 169 168
3 169 165 164
3 170 168 164
3 167 165 169
3 174 178 179
3 170 166 173
3 171 175 172
3 166 167 172
3 177 176 179
3 173 177 178
3 172 175 179
3 173 172 176
3 180 183 182
3 183 186 182
3 187 184 186
3 184 181 180
3 186 180 182
3 187 181 185
3 189 190 188
3 191 194 190
3 195 192 194
3 193 188 192
3 194 188 190
3 191 193 195
3 197 198 196
3 198 203 202
3 202 201 200
3 201 196 200
3 202 196 198
3 203 197 201
3 205 206 204
3 207 210 206
3 211 208 210
3 209 204 208
3 210 204 206
3 207 209 211
3 180 181 183
3 183 187 186
3 187 185 184
3 184 185 181
3 186 184 180
3 187 183 181
3 189 191 190
3 191 195 194
3 195 193 192
3 193 189 188
3 194 192 188
3 191 189 193
3 197 199 198
3 198 199 203
3 202 203 201
3 201 197 196
3 202 200 196
3 203 199 197
3 205 207 206
3 207 211 210
3 211 209 208
3 209 205 204
3 210 208 204
3 207 205 209
19 18
