ply
format ascii 1.0
comment Created in Blender version 5.1.0
element vertex 40
property float x
property float y
property float z
property uchar red
property uchar green
property uchar blue
property uchar alpha
element face 76
property list uchar uint vertex_indices
end_header
0.5771992 -2.4671547 -0.6017759 239 244 134 255
0.5771992 -2.4671547 -1.2017759 239 244 134 255
0.4996412 -2.932505 -0.709543 147 140 79 255
0.4305225 -2.882251 -1.0542758 146 139 79 255
-0.022800773 -2.4671547 -0.6017759 239 244 134 255
-0.022800773 -2.4671547 -1.2017759 239 244 134 255
-0.100358814 -2.932505 -0.709543 146 139 79 255
-0.16947752 -2.882251 -1.0542758 146 139 79 255
0.59960175 -1.7995061 -0.31754363 239 244 134 255
0.5570078 -1.5413496 -0.91190195 239 244 134 255
-0.037390172 -1.9255202 -0.32662803 239 244 134 255
-0.0799841 -1.6673639 -0.9209863 239 244 134 255
0.52904284 -1.1181866 0.20509738 239 244 134 255
0.46783245 -0.7471988 -0.64903533 239 244 134 255
-0.3863571 -1.2992775 0.19204253 239 244 134 255
-0.44756755 -0.92828953 -0.6620902 239 244 134 255
0.5363165 -0.031687975 0.7526354 239 244 134 255
0.4686255 0.3785789 -0.19192892 239 244 134 255
-0.47600165 -0.23195171 0.73819834 239 244 134 255
-0.5436927 0.17831492 -0.20636582 239 244 134 255
0.20157474 0.7778027 1.0797055 239 244 134 255
0.14624059 1.1131756 0.3075698 239 244 134 255
-0.62594616 0.6140969 1.0679038 239 244 134 255
-0.6812804 0.9494698 0.29576844 239 244 134 255
-0.08079511 1.5038552 1.278122 239 244 134 255
-0.12455073 1.769052 0.66755444 239 244 134 255
-0.73515856 1.3744044 1.2687898 239 244 134 255
-0.7789142 1.6396012 0.6582225 239 244 137 255
-0.39739886 1.908526 1.4678543 239 244 134 255
-0.4190353 2.039661 1.1659398 239 244 134 255
-0.7209698 1.8445148 1.4632399 239 244 134 255
-0.74260616 1.9756503 1.1613255 242 246 162 255
-0.4725404 2.0807343 1.7302363 146 139 79 255
-0.5530658 2.2955236 1.4931746 146 139 79 255
-0.7815428 1.9652605 1.7305737 146 139 79 255
-0.8620682 2.18005 1.4935119 146 139 79 255
-0.661363 2.167954 2.048589 146 139 79 255
-0.7354702 2.274661 2.0264552 146 139 79 255
-0.7674378 2.0911875 2.0336506 146 139 79 255
-0.841545 2.197894 2.011517 146 139 79 255
3 4 2 0
3 3 6 7
3 7 4 5
3 5 3 7
3 0 3 1
3 1 11 9
3 10 12 14
3 0 10 4
3 0 9 8
3 4 11 5
3 14 19 15
3 8 13 12
3 10 15 11
3 11 13 9
3 19 21 17
3 13 19 17
3 12 18 14
3 12 17 16
3 22 24 26
3 18 20 22
3 16 21 20
3 18 23 19
3 26 28 30
3 21 24 20
3 23 26 27
3 23 25 21
3 30 35 31
3 24 29 28
3 26 31 27
3 27 29 25
3 34 39 35
3 31 33 29
3 30 32 34
3 28 33 32
3 38 37 39
3 35 37 33
3 34 36 38
3 32 37 36
3 4 6 2
3 3 2 6
3 7 6 4
3 5 1 3
3 0 2 3
3 1 5 11
3 10 8 12
3 0 8 10
3 0 1 9
3 4 10 11
3 14 18 19
3 8 9 13
3 10 14 15
3 11 15 13
3 19 23 21
3 13 15 19
3 12 16 18
3 12 13 17
3 22 20 24
3 18 16 20
3 16 17 21
3 18 22 23
3 26 24 28
3 21 25 24
3 23 22 26
3 23 27 25
3 30 34 35
3 24 25 29
3 26 30 31
3 27 31 29
3 34 38 39
3 31 35 33
3 30 28 32
3 28 29 33
3 38 36 37
3 35 39 37
3 34 32 36
3 32 33 37
