ply
format ascii 1.0
comment Created in Blender version 5.1.2
element vertex 6
property float x
property float y
property float z
property uchar red
property uchar green
property uchar blue
property uchar alpha
element face 4
property list uchar uint vertex_indices
end_header
-0.079608895 -0.079608895 -0.079608895 129 129 129 255
-0.07003702 0.079608895 -0.079608895 0 0 0 255
0.079608895 -0.079608895 -0.079608895 139 139 139 255
0.07003702 0.079608895 -0.079608895 1 1 1 255
-0.028596038 0.75502384 -0.0796089 4 4 4 255
0.028596038 0.75502384 -0.0796089 3 3 3 255
3 1 2 0
3 3 4 1
3 1 3 2
3 3 5 4
