ply
format ascii 1.0
comment Created in Blender version 5.1.2
element vertex 41
property float x
property float y
property float z
property uchar red
property uchar green
property uchar blue
property uchar alpha
element face 52
property list uchar uint vertex_indices
end_header
-0.13465023 3.1418333 0.74508953 116 106 54 255
-0.13465023 -0.17263031 0.91760445 85 116 75 255
5.4425673 2.7169812 10.909076 43 41 26 255
5.442568 1.305175 10.986048 60 55 34 255
-0.13465023 3.664089 0.71790695 129 121 82 255
5.4425673 2.9398055 10.883482 57 53 41 255
-0.13465118 9.08893 0.374722 129 121 82 255
5.442567 6.757201 10.53437 67 64 43 255
8.018831 2.147677 17.584854 43 38 23 255
8.018831 1.9479312 17.619888 46 41 26 255
8.018831 2.6394005 17.559261 41 37 24 255
8.018831 4.3417134 17.21015 37 34 24 255
0.40994787 -0.17263055 0.91760397 95 72 52 255
8.086403 -0.14235306 1.2565355 104 79 58 255
8.000005 1.790125 17.56624 42 33 22 255
5.755563 1.1145186 10.959749 53 44 31 255
5.2335615 0.9697647 10.992662 55 46 33 255
0.31569958 9.08893 0.111365795 93 88 61 255
5.8929186 6.7572017 10.271015 44 43 31 255
8.013202 4.2847667 16.940674 34 34 24 255
8.013202 9.018723 0.794641 55 58 51 255
16.13464 3.1418326 0.74508 116 106 54 255
16.13464 -0.17263103 0.9175949 85 116 75 255
10.557435 2.716981 10.909073 43 41 26 255
10.557435 1.3051748 10.986045 60 55 34 255
16.13464 3.6640882 0.7178974 129 121 82 255
10.557435 2.9398055 10.883479 57 53 41 255
16.134642 9.08893 0.37471247 129 121 82 255
10.557435 6.7572007 10.5343685 67 64 43 255
7.9811783 2.147677 17.584854 43 38 23 255
7.9811788 1.9479312 17.619888 46 41 26 255
7.9811783 2.6394005 17.559261 41 37 24 255
7.9811783 4.3417134 17.21015 37 34 24 255
15.590042 -0.17263103 0.9175954 95 72 52 255
7.913588 -0.14235306 1.2565355 104 79 58 255
10.24444 1.1145184 10.959746 53 44 31 255
10.76644 0.9697645 10.992659 55 46 33 255
15.684291 9.08893 0.11135721 93 88 61 255
10.107083 6.7572017 10.271013 44 43 31 255
7.9868073 4.2847667 16.940674 34 34 24 255
7.9867897 9.018723 0.794641 55 58 51 255
3 0 3 1
3 2 4 5
3 5 6 7
3 5 11 10
3 5 8 2
3 3 8 9
3 3 14 15
3 1 16 12
3 16 3 15
3 16 15 13
3 7 19 11
3 6 18 7
3 19 18 20
3 18 17 20
3 24 21 22
3 23 25 21
3 26 27 25
3 26 32 28
3 29 26 23
3 24 29 23
3 24 14 30
3 22 36 24
3 36 35 24
3 34 35 36
3 39 28 32
3 38 27 28
3 39 40 38
3 38 40 37
3 0 2 3
3 2 0 4
3 5 4 6
3 5 7 11
3 5 10 8
3 3 2 8
3 3 9 14
3 1 3 16
3 13 12 16
3 15 14 13
3 7 18 19
3 6 17 18
3 24 23 21
3 23 26 25
3 26 28 27
3 26 31 32
3 29 31 26
3 24 30 29
3 24 35 14
3 22 33 36
3 36 33 34
3 34 14 35
3 39 38 28
3 38 37 27
