ply
format ascii 1.0
comment Created in Blender version 5.1.2
element vertex 41
property float x
property float y
property float z
property uchar red
property uchar green
property uchar blue
property uchar alpha
element face 52
property list uchar uint vertex_indices
end_header
-0.13465023 3.1418333 0.42872715 116 106 54 255
-0.13465023 -0.17263007 0.57360935 85 116 75 255
5.4425673 2.7169812 8.96468 43 41 26 255
5.442568 1.3051748 9.029323 60 55 34 255
-0.13465023 3.6640887 0.4058981 129 121 82 255
5.4425673 2.9398055 8.943186 57 53 41 255
-0.13465023 9.08893 0.117684364 129 121 82 255
5.4425673 6.7572007 8.649994 67 64 43 255
8.018831 2.147677 14.571154 43 38 23 255
8.01883 1.9479313 14.600576 46 41 26 255
8.018831 2.6394002 14.549659 41 37 24 255
8.018831 4.341713 14.256469 37 34 24 255
0.40994787 -0.17263031 0.5736089 95 72 52 255
8.086403 -0.14235282 0.8582511 104 79 58 255
8.000003 1.7901249 14.555522 42 33 22 255
5.755563 1.1145188 9.0072365 53 44 31 255
5.233562 0.9697648 9.034878 55 46 33 255
0.31570005 9.08893 -0.1034894 93 88 61 255
5.8929186 6.757201 8.428822 44 43 31 255
8.013202 4.2847667 14.030156 34 34 24 255
8.013202 9.018721 0.47034168 55 58 51 255
16.13464 3.1418326 0.4287176 116 106 54 255
16.13464 -0.17263079 0.5735998 85 116 75 255
10.557432 2.716981 8.964677 43 41 26 255
10.557432 1.3051747 9.02932 60 55 34 255
16.13464 3.6640882 0.40588856 129 121 82 255
10.557432 2.9398055 8.943182 57 53 41 255
16.13464 9.088929 0.11767483 129 121 82 255
10.557433 6.7572007 8.649991 67 64 43 255
7.9811754 2.147677 14.571154 43 38 23 255
7.981176 1.9479313 14.600576 46 41 26 255
7.9811754 2.6394002 14.549659 41 37 24 255
7.9811754 4.341713 14.256469 37 34 24 255
15.590042 -0.17263079 0.5736003 95 72 52 255
7.913588 -0.14235282 0.8582511 104 79 58 255
10.244437 1.1145186 9.007234 53 44 31 255
10.766438 0.9697647 9.034874 55 46 33 255
15.68429 9.088929 -0.10349798 93 88 61 255
10.107081 6.757201 8.428819 44 43 31 255
7.9868045 4.2847667 14.030156 34 34 24 255
7.9867897 9.018721 0.47034168 55 58 51 255
3 0 3 1
3 2 4 5
3 5 6 7
3 5 11 10
3 5 8 2
3 2 9 3
3 3 14 15
3 1 16 12
3 16 3 15
3 16 15 13
3 7 19 11
3 6 18 7
3 19 18 20
3 18 17 20
3 24 21 22
3 23 25 21
3 26 27 25
3 26 32 28
3 29 26 23
3 30 23 24
3 24 14 30
3 22 36 24
3 36 35 24
3 34 35 36
3 39 28 32
3 38 27 28
3 39 40 38
3 38 40 37
3 0 2 3
3 2 0 4
3 5 4 6
3 5 7 11
3 5 10 8
3 2 8 9
3 3 9 14
3 1 3 16
3 13 12 16
3 15 14 13
3 7 18 19
3 6 17 18
3 24 23 21
3 23 26 25
3 26 28 27
3 26 31 32
3 29 31 26
3 30 29 23
3 24 35 14
3 22 33 36
3 36 33 34
3 34 14 35
3 39 38 28
3 38 37 27
