ply
format ascii 1.0
comment Created in Blender version 5.1.0
element vertex 41
property float x
property float y
property float z
property uchar red
property uchar green
property uchar blue
property uchar alpha
element face 52
property list uchar uint vertex_indices
end_header
16.134651 -4.965124 3.1418328 116 106 54 255
16.134651 -4.618054 -0.17263103 85 116 75 255
10.557432 9.521004 2.716981 43 41 26 255
10.557432 9.675856 1.305175 60 55 34 255
16.134651 -5.0198116 3.6640887 129 121 82 255
10.557432 9.469514 2.9398057 57 53 41 255
16.134651 -5.710235 9.08893 129 121 82 255
10.557432 8.767166 6.757201 67 64 43 255
7.9811683 9.607487 2.147677 43 38 23 255
7.981168 9.677969 1.9479312 46 41 26 255
7.9811683 9.555996 2.6394005 41 37 24 255
7.9811683 8.853648 5.9390244 37 34 24 255
15.590053 -4.6180544 -0.17263103 95 72 52 255
8.004637 -3.9254234 -0.084094524 104 79 58 255
7.999995 9.57004 1.790125 42 33 22 255
10.244437 9.622949 1.1145186 53 44 31 255
10.7664385 9.689164 0.9697646 55 46 33 255
15.684301 -6.2400603 9.08893 93 88 61 255
10.107081 8.23734 6.7572017 44 43 31 255
7.986798 8.311512 5.8820786 34 34 24 255
7.9867973 -4.865434 9.018722 55 58 51 255
-0.13464451 -4.9651337 3.1418324 116 106 54 255
-0.13464451 -4.6180634 -0.1726315 85 116 75 255
5.442558 9.521 2.716981 43 41 26 255
5.442558 9.675852 1.3051747 60 55 34 255
-0.13464451 -5.019821 3.6640882 129 121 82 255
5.442558 9.46951 2.9398055 57 53 41 255
-0.13464451 -5.7102447 9.08893 129 121 82 255
5.442558 8.767162 6.7572007 67 64 43 255
8.018822 9.607487 2.147677 43 38 23 255
8.018822 9.677969 1.9479312 46 41 26 255
8.018822 9.555996 2.6394005 41 37 24 255
8.018823 8.853648 5.9390244 37 34 24 255
0.40995407 -4.618063 -0.1726315 95 72 52 255
7.995369 -3.9254234 -0.084094524 104 79 58 255
5.7555532 9.622947 1.1145184 53 44 31 255
5.233552 9.68916 0.96976435 55 46 33 255
0.31570673 -6.240069 9.088929 93 88 61 255
5.89291 8.237338 6.757201 44 43 31 255
8.013194 8.311512 5.8820786 34 34 24 255
8.013208 -4.865434 9.018722 55 58 51 255
3 1 2 3
3 0 5 2
3 4 7 5
3 5 11 10
3 2 10 8
3 3 8 9
3 9 15 3
3 1 16 12
3 16 3 15
3 16 15 13
3 11 18 19
3 6 18 7
3 19 18 20
3 18 17 20
3 22 23 21
3 26 21 23
3 28 25 26
3 26 32 28
3 23 31 26
3 24 29 23
3 35 30 24
3 22 36 24
3 36 35 24
3 34 35 36
3 32 38 28
3 38 27 28
3 39 40 38
3 38 40 37
3 1 0 2
3 0 4 5
3 4 6 7
3 5 7 11
3 2 5 10
3 3 2 8
3 9 14 15
3 1 3 16
3 13 12 16
3 15 14 13
3 11 7 18
3 6 17 18
3 22 24 23
3 26 25 21
3 28 27 25
3 26 31 32
3 23 29 31
3 24 30 29
3 35 14 30
3 22 33 36
3 36 33 34
3 34 14 35
3 32 39 38
3 38 37 27
