ply
format ascii 1.0
comment Created in Blender version 5.1.0
element vertex 212
property float x
property float y
property float z
property uchar red
property uchar green
property uchar blue
property uchar alpha
property float instance_index
property float instance_random_x
property float instance_random_y
property float instance_random_z
element face 382
property list uchar uint vertex_indices
element edge 1
property int vertex1
property int vertex2
end_header
14.546558 -6.355341 1.2540264 199 204 219 255 0 0 0 0
15.536888 -5.350052 1.3736286 199 204 219 255 0 0 0 0
14.928922 -6.275462 1.2635295 199 204 219 255 0 0 0 0
15.251394 -6.056364 1.2895966 199 204 219 255 0 0 0 0
15.464884 -5.7314034 1.328258 199 204 219 255 0 0 0 0
15.536888 -5.2907257 0.87497616 182 186 200 255 0 0 0 0
12.770328 -6.321337 0.89684534 182 186 200 255 0 0 0 0
15.464884 -5.672077 0.8296056 182 186 200 255 0 0 0 0
15.262857 -6.007208 0.7815012 182 186 200 255 0 0 0 0
14.889519 -6.2449145 0.76236886 182 186 200 255 0 0 0 0
0.8238659 -5.5109034 1.3544916 199 204 219 255 0 0 0 0
1.8362446 -6.494298 1.2374942 199 204 219 255 0 0 0 0
0.9043083 -5.8905888 1.3093193 199 204 219 255 0 0 0 0
1.1249504 -6.210803 1.2712225 199 204 219 255 0 0 0 0
1.4522028 -6.4227977 1.2460009 199 204 219 255 0 0 0 0
1.8362446 -6.434972 0.73884183 182 186 200 255 0 0 0 0
0.8238659 -5.451577 0.85583913 182 186 200 255 0 0 0 0
1.4522028 -6.3634715 0.7473484 182 186 200 255 0 0 0 0
1.1249504 -6.151477 0.77257 182 186 200 255 0 0 0 0
0.9043083 -5.8312626 0.81066686 182 186 200 255 0 0 0 0
14.623989 2.414987 2.2974577 182 186 200 255 0 0 0 0
13.722216 3.3983808 2.4144552 182 186 200 255 0 0 0 0
14.552336 2.7946715 2.34263 182 186 200 255 0 0 0 0
14.355799 3.1148863 2.3807268 182 186 200 255 0 0 0 0
14.064299 3.3268805 2.4059484 182 186 200 255 0 0 0 0
13.722216 3.457707 1.9158027 182 186 200 255 0 0 0 0
14.623989 2.4743133 1.7988055 182 186 200 255 0 0 0 0
14.064299 3.3862066 1.9072961 182 186 200 255 0 0 0 0
14.355799 3.1742125 1.8820745 182 186 200 255 0 0 0 0
14.552336 2.8539977 1.8439777 182 186 200 255 0 0 0 0
2.400527 3.2710996 2.2997868 182 186 200 255 0 0 0 0
1.5183926 2.2658107 2.1801846 182 186 200 255 0 0 0 0
2.059937 3.1912198 2.2902834 182 186 200 255 0 0 0 0
1.772696 2.9721227 2.2642167 182 186 200 255 0 0 0 0
1.5825305 2.647162 2.2255552 182 186 200 255 0 0 0 0
1.5183926 2.3134613 1.7796685 182 186 200 255 0 0 0 0
2.400527 3.3187504 1.8992705 182 186 200 255 0 0 0 0
1.5825305 2.6948128 1.8250389 182 186 200 255 0 0 0 0
1.772696 3.0197735 1.8637004 182 186 200 255 0 0 0 0
2.059937 3.2388706 1.8897672 182 186 200 255 0 0 0 0
0.9415388 -1.6225463 1.7673382 182 186 200 255 0 0 0 0
0.9355817 -1.569058 1.3177538 182 186 200 255 0 0 0 0
8.061371 3.3347402 2.357121 182 186 200 255 0 0 0 0
8.061371 3.3882284 1.9075365 182 186 200 255 0 0 0 0
15.27208 -1.4082062 1.3368908 182 186 200 255 0 0 0 0
15.263894 -1.4675324 1.8355432 182 186 200 255 0 0 0 0
8.1914015 -6.3654933 0.7471079 182 186 200 255 0 0 0 0
8.1914015 -6.4248195 1.2457604 190 194 208 255 0 0 0 0
13.95746 -6.071515 1.2858081 199 204 219 255 0 0 0 0
14.88464 -5.1621733 1.393995 182 186 200 255 0 0 0 0
14.310526 -6.004034 1.2938364 199 204 219 255 0 0 0 0
14.61071 -5.8075247 1.3172157 198 203 218 255 0 0 0 0
14.812312 -5.511903 1.3523867 182 186 200 255 0 0 0 0
1.3454099 -5.078828 1.4039109 182 186 200 255 0 0 0 0
2.2611651 -5.999514 1.2943742 182 186 200 255 0 0 0 0
1.4133668 -5.4294205 1.3621999 182 186 200 255 0 0 0 0
1.6112614 -5.727502 1.3267363 182 186 200 255 0 0 0 0
1.9089684 -5.927692 1.302919 182 186 200 255 0 0 0 0
14.159426 1.9833772 2.244122 182 186 200 255 0 0 0 0
13.343697 2.9016447 2.373465 182 186 200 255 0 0 0 0
14.098892 2.3339698 2.285833 182 186 200 255 0 0 0 0
13.9226 2.6299286 2.3386803 182 186 200 255 0 0 0 0
13.657368 2.824565 2.40798 182 186 200 255 0 0 0 0
2.925264 2.9868083 2.2719216 182 186 200 255 0 0 0 0
2.099381 2.0774662 2.1637347 182 186 200 255 0 0 0 0
2.6107712 2.9193273 2.2638934 182 186 200 255 0 0 0 0
2.3433833 2.722818 2.240514 182 186 200 255 0 0 0 0
2.1638064 2.4271953 2.205343 182 186 200 255 0 0 0 0
1.5904012 -1.5006806 1.7838228 182 186 200 255 0 0 0 0
8.134491 2.945436 2.3127902 182 186 200 255 0 0 0 0
14.669359 -1.589398 1.8190585 182 186 200 255 0 0 0 0
8.109313 -6.0355144 1.290091 199 204 219 255 0 0 0 0
13.054562 -5.3976 1.3624884 182 186 200 255 0 0 0 0
13.842888 -4.629962 1.4538164 182 186 200 255 0 0 0 0
13.3539 -5.341492 1.3691638 182 186 200 255 0 0 0 0
13.608829 -5.175905 1.388864 182 186 200 255 0 0 0 0
13.780539 -4.92605 1.4185901 182 186 200 255 0 0 0 0
2.3721385 -4.5185432 1.4670722 182 186 200 255 0 0 0 0
3.1451902 -5.3013473 1.3739399 182 186 200 255 0 0 0 0
2.4286423 -4.8157854 1.4317085 182 186 200 255 0 0 0 0
2.5953956 -5.0689287 1.4015913 182 186 200 255 0 0 0 0
2.847014 -5.239436 1.3813056 182 186 200 255 0 0 0 0
13.244868 1.4239135 2.1740637 182 186 200 255 0 0 0 0
12.556143 2.2004678 2.3191288 182 186 200 255 0 0 0 0
13.194538 1.7211554 2.2094274 182 186 200 255 0 0 0 0
13.045992 1.9732759 2.2479181 182 186 200 255 0 0 0 0
12.821737 2.1361632 2.3310823 182 186 200 255 0 0 0 0
3.7312217 2.3098102 2.2196956 182 186 200 255 0 0 0 0
3.0269628 1.5379293 2.168242 182 186 200 255 0 0 0 0
3.462823 2.2549036 2.204743 182 186 200 255 0 0 0 0
3.2355123 2.0852582 2.2206793 182 186 200 255 0 0 0 0
3.0823717 1.8318481 2.2224488 182 186 200 255 0 0 0 0
2.6895013 -1.4870543 1.7889413 182 186 200 255 0 0 0 0
8.142897 2.2593944 2.2346673 182 186 200 255 0 0 0 0
13.643066 -1.6030242 1.81394 182 186 200 255 0 0 0 0
8.099875 -5.349474 1.3682141 182 186 200 255 0 0 0 0
11.265581 -3.7880688 1.5834749 182 186 200 255 0 0 0 0
11.6854515 -3.2874804 1.6143287 182 186 200 255 0 0 0 0
11.44426 -3.7462897 1.6022124 182 186 200 255 0 0 0 0
11.587767 -3.6361148 1.6113424 182 186 200 255 0 0 0 0
11.672758 -3.4746714 1.6127367 182 186 200 255 0 0 0 0
4.718626 -3.5501301 1.574893 182 186 200 255 0 0 0 0
5.1813197 -4.011595 1.5199912 182 186 200 255 0 0 0 0
4.747732 -3.7322252 1.5532286 182 186 200 255 0 0 0 0
4.8465147 -3.8838663 1.5351874 182 186 200 255 0 0 0 0
4.999237 -3.9819682 1.5235159 182 186 200 255 0 0 0 0
11.2060175 0.45723522 2.0516608 182 186 200 255 0 0 0 0
10.759884 0.9187002 2.1065626 182 186 200 255 0 0 0 0
11.167124 0.6393299 2.0733252 182 186 200 255 0 0 0 0
11.068684 0.7909708 2.0913663 182 186 200 255 0 0 0 0
10.925679 0.8890722 2.1030378 182 186 200 255 0 0 0 0
5.3013315 0.69662356 2.0321267 182 186 200 255 0 0 0 0
4.8873835 0.1992799 1.9729562 182 186 200 255 0 0 0 0
5.137987 0.6532657 2.0269682 182 186 200 255 0 0 0 0
5.0019603 0.5435238 2.0139117 182 186 200 255 0 0 0 0
4.9139595 0.38410592 1.9949455 182 186 200 255 0 0 0 0
4.838031 -1.675425 1.7739246 182 186 200 255 0 0 0 0
8.030608 0.80766153 2.0693445 182 186 200 255 0 0 0 0
11.398359 -1.4146532 1.8289568 182 186 200 255 0 0 0 0
8.225468 -3.8977404 1.5335368 182 186 200 255 0 0 0 0
10.577219 -5.373537 1.3653512 182 186 200 255 0 0 0 0
9.754924 -3.8408134 1.5403095 182 186 200 255 0 0 0 0
12.172263 -4.590743 1.4547853 182 186 200 255 0 0 0 0
8.162907 -4.6236067 1.4508754 182 186 200 255 0 0 0 0
10.167585 -4.607175 1.4528304 182 186 200 255 0 0 0 0
6.0585938 2.0261571 2.2085152 182 186 200 255 0 0 0 0
6.544392 1.0058932 2.0915217 182 186 200 255 0 0 0 0
8.086753 1.5335281 2.152006 182 186 200 255 0 0 0 0
5.0766735 1.5058153 2.1473393 182 186 200 255 0 0 0 0
6.3011007 1.5136681 2.173209 182 186 200 255 0 0 0 0
2.908091 0.018662214 2.0443344 182 186 200 255 0 0 0 0
4.8857827 -0.7380726 1.8734404 182 186 200 255 0 0 0 0
3.9573517 0.87185717 2.0418832 182 186 200 255 0 0 0 0
3.802784 -1.5913655 1.8673694 182 186 200 255 0 0 0 0
3.9011216 -0.35469127 1.911658 182 186 200 255 0 0 0 0
13.810612 -3.1206846 1.6691133 182 186 200 255 0 0 0 0
11.545914 -2.3505976 1.7176049 182 186 200 255 0 0 0 0
12.47311 -1.5088389 1.8214484 182 186 200 255 0 0 0 0
12.785662 -3.9582522 1.5300347 182 186 200 255 0 0 0 0
12.6549835 -2.7335453 1.6757416 182 186 200 255 0 0 0 0
2.1137006 -4.533662 0.31086597 122 125 136 255 0 0 0 0
2.1137006 -4.6363893 1.1743194 122 125 136 255 0 0 0 0
6.488617 -4.4858327 0.31655636 122 125 136 255 0 0 0 0
6.488617 -4.58856 1.1800097 122 125 136 255 0 0 0 0
2.1232736 -5.3970633 0.20814463 122 125 136 255 0 0 0 0
2.1232736 -5.4997907 1.071598 122 125 136 255 0 0 0 0
6.49819 -5.349234 0.21383503 122 125 136 255 0 0 0 0
6.49819 -5.4519615 1.0772884 122 125 136 255 0 0 0 0
6.769306 -4.650713 0.5170493 122 125 136 255 0 0 0 0
6.769306 -4.739241 1.2611523 122 125 136 255 0 0 0 0
11.144222 -4.588684 0.40338933 122 125 136 255 0 0 0 0
11.144222 -4.691412 1.2668427 122 125 136 255 0 0 0 0
6.7745123 -5.120277 0.46118397 122 125 136 255 0 0 0 0
6.7745123 -5.208805 1.205287 122 125 136 255 0 0 0 0
11.149429 -5.0582485 0.34752393 122 125 136 255 0 0 0 0
11.149429 -5.160976 1.2109773 122 125 136 255 0 0 0 0
9.683459 -4.7287183 0.2332372 122 125 136 255 0 0 0 0
9.560385 -4.830591 1.0028193 122 125 136 255 0 0 0 0
13.935302 -4.680034 0.14505637 122 125 136 255 0 0 0 0
13.935302 -4.7827616 1.0085098 0 0 0 255 0 0 0 0
9.688665 -5.1982822 0.1773718 122 125 136 255 0 0 0 0
9.720309 -5.286 0.88748646 122 125 136 255 0 0 0 0
13.940508 -5.1495986 0.08919096 122 125 136 255 0 0 0 0
13.940508 -5.252326 0.95264435 122 125 136 255 0 0 0 0
2.3583164 -5.0887556 -0.5116425 122 125 136 255 0 0 0 0
2.3583164 -5.1402216 -0.079055235 122 125 136 255 0 0 0 0
2.5600657 -5.0865498 -0.5113801 122 125 136 255 0 0 0 0
2.5600657 -5.138016 -0.07879281 122 125 136 255 0 0 0 0
2.3612761 -5.355717 -0.54340374 122 125 136 255 0 0 0 0
2.3612761 -5.4071836 -0.11081645 122 125 136 255 0 0 0 0
2.5630255 -5.353512 -0.5431413 122 125 136 255 0 0 0 0
2.5630255 -5.404978 -0.110554025 122 125 136 255 0 0 0 0
2.7653792 -5.2587223 0.07727337 122 125 136 255 0 0 0 0
2.9179156 -5.16641 -0.20279236 122 125 136 255 0 0 0 0
2.937203 -5.363039 -0.25709853 122 125 136 255 0 0 0 0
2.7846665 -5.455352 0.02296722 122 125 136 255 0 0 0 0
2.9618483 -5.1902776 0.3066396 122 125 136 255 0 0 0 0
3.2182317 -5.1065636 0.2564872 122 125 136 255 0 0 0 0
3.2661803 -5.267279 0.23333967 122 125 136 255 0 0 0 0
3.0097966 -5.350993 0.28349197 122 125 136 255 0 0 0 0
2.5690908 3.1560159 -4.6752434 170 174 186 255 0 0.024333188 0.27238283 0.6861445
2.2750895 2.3946395 1.8304942 122 125 136 255 0 0.024333188 0.27238283 0.6861445
3.1191573 3.1626625 -4.674453 170 174 186 255 0 0.024333188 0.27238283 0.6861445
2.8543217 2.4016383 1.8313268 122 125 136 255 0 0.024333188 0.27238283 0.6861445
2.5751462 2.5523298 -4.7470655 170 174 186 255 0 0.024333188 0.27238283 0.6861445
2.281466 1.758945 1.7548639 122 125 136 255 0 0.024333188 0.27238283 0.6861445
3.125213 2.5589762 -4.746275 170 174 186 255 0 0.024333188 0.27238283 0.6861445
2.8606987 1.7659438 1.7556965 122 125 136 255 0 0.024333188 0.27238283 0.6861445
1.743907 -4.3339067 -5.566341 170 174 186 255 1 0.19235693 0.63152885 0.67525965
1.743907 -5.1077366 0.93791455 122 125 136 255 1 0.19235693 0.63152885 0.67525965
2.3840845 -4.3269076 -5.5655084 170 174 186 255 1 0.19235693 0.63152885 0.67525965
2.3840845 -5.1007376 0.9387472 122 125 136 255 1 0.19235693 0.63152885 0.67525965
1.7509551 -4.9696 -5.641971 170 174 186 255 1 0.19235693 0.63152885 0.67525965
1.7509551 -5.7434306 0.8622842 122 125 136 255 1 0.19235693 0.63152885 0.67525965
2.3911326 -4.962601 -5.6411386 170 174 186 255 1 0.19235693 0.63152885 0.67525965
2.3911326 -5.7364316 0.86311686 122 125 136 255 1 0.19235693 0.63152885 0.67525965
13.102861 3.2832947 -4.660101 170 174 186 255 0 0.024333188 0.27238283 0.6861445
13.367376 2.5286667 1.8464397 122 125 136 255 0 0.024333188 0.27238283 0.6861445
13.652929 3.2899413 -4.65931 170 174 186 255 0 0.024333188 0.27238283 0.6861445
13.9466095 2.5356655 1.8472724 122 125 136 255 0 0.024333188 0.27238283 0.6861445
13.108919 2.6796086 -4.731923 170 174 186 255 0 0.024333188 0.27238283 0.6861445
13.3737545 1.8929722 1.7708094 122 125 136 255 0 0.024333188 0.27238283 0.6861445
13.658983 2.686255 -4.7311325 170 174 186 255 0 0.024333188 0.27238283 0.6861445
13.952986 1.899971 1.771642 122 125 136 255 0 0.024333188 0.27238283 0.6861445
14.003305 -4.199879 -5.5503955 170 174 186 255 1 0.19235693 0.63152885 0.67525965
14.003305 -4.973709 0.9538601 122 125 136 255 1 0.19235693 0.63152885 0.67525965
14.643484 -4.19288 -5.5495625 170 174 186 255 1 0.19235693 0.63152885 0.67525965
14.643484 -4.9667106 0.9546927 122 125 136 255 1 0.19235693 0.63152885 0.67525965
14.010353 -4.8355727 -5.6260257 170 174 186 255 1 0.19235693 0.63152885 0.67525965
14.010353 -5.609403 0.87822974 122 125 136 255 1 0.19235693 0.63152885 0.67525965
14.650532 -4.8285747 -5.625193 170 174 186 255 1 0.19235693 0.63152885 0.67525965
14.650532 -5.6024046 0.87906235 122 125 136 255 1 0.19235693 0.63152885 0.67525965
3 0 9 2
3 2 8 3
3 3 7 4
3 7 1 4
3 31 37 35
3 34 38 37
3 33 39 38
3 32 36 39
3 16 12 10
3 19 13 12
3 18 14 13
3 17 11 14
3 26 22 20
3 29 23 22
3 28 24 23
3 27 21 24
3 44 1 5
3 47 15 46
3 40 53 68
3 7 19 43
3 41 31 35
3 42 25 43
3 16 40 41
3 30 43 36
3 26 45 44
3 6 47 46
3 70 82 94
3 22 61 60
3 32 66 65
3 11 57 14
3 3 52 51
3 0 50 48
3 31 67 34
3 45 58 70
3 12 56 55
3 31 68 64
3 45 49 1
3 24 61 23
3 30 65 63
3 20 60 58
3 1 52 4
3 47 54 11
3 33 67 66
3 47 48 71
3 14 56 13
3 42 59 21
3 10 55 53
3 2 51 50
3 42 63 69
3 21 62 24
3 78 105 81
3 48 74 72
3 59 86 62
3 53 79 77
3 48 120 95
3 50 75 74
3 70 135 73
3 56 79 55
3 51 76 75
3 71 78 54
3 57 80 56
3 49 76 52
3 63 125 93
3 54 81 57
3 64 91 67
3 68 77 92
3 58 84 82
3 67 90 66
3 68 130 88
3 60 85 84
3 65 90 89
3 69 83 59
3 62 85 61
3 63 89 87
3 118 117 131
3 88 112 115
3 77 116 133
3 82 108 106
3 91 114 90
3 133 131 134
3 85 108 84
3 89 114 113
3 93 127 107
3 86 109 85
3 89 111 128
3 82 118 137
3 74 96 122
3 83 110 86
3 77 103 101
3 124 96 121
3 74 99 98
3 137 136 139
3 80 103 79
3 76 99 75
3 95 119 102
3 81 104 80
3 73 97 100
3 129 111 126
3 123 121 119
3 95 124 123
3 120 122 124
3 127 126 117
3 93 129 127
3 125 128 129
3 134 112 132
3 130 132 88
3 92 134 130
3 139 97 138
3 135 138 73
3 94 139 135
3 0 6 9
3 2 9 8
3 3 8 7
3 7 5 1
3 31 34 37
3 34 33 38
3 33 32 39
3 32 30 36
3 16 19 12
3 19 18 13
3 18 17 14
3 17 15 11
3 26 29 22
3 29 28 23
3 28 27 24
3 27 25 21
3 44 45 1
3 47 11 15
3 40 10 53
3 43 25 27
3 27 28 29
3 29 26 44
3 44 5 7
3 7 8 9
3 9 6 46
3 46 15 17
3 17 18 19
3 19 16 41
3 41 35 37
3 37 38 39
3 39 36 43
3 43 27 29
3 29 44 7
3 7 9 46
3 46 17 19
3 19 41 37
3 37 39 43
3 43 29 7
3 7 46 19
3 19 37 43
3 41 40 31
3 42 21 25
3 16 10 40
3 30 42 43
3 26 20 45
3 6 0 47
3 70 58 82
3 22 23 61
3 32 33 66
3 11 54 57
3 3 4 52
3 0 2 50
3 31 64 67
3 45 20 58
3 12 13 56
3 31 40 68
3 45 70 49
3 24 62 61
3 30 32 65
3 20 22 60
3 1 49 52
3 47 71 54
3 33 34 67
3 47 0 48
3 14 57 56
3 42 69 59
3 10 12 55
3 2 3 51
3 42 30 63
3 21 59 62
3 78 102 105
3 48 50 74
3 59 83 86
3 53 55 79
3 95 71 48
3 48 72 120
3 50 51 75
3 73 49 70
3 70 94 135
3 56 80 79
3 51 52 76
3 71 95 78
3 57 81 80
3 49 73 76
3 93 69 63
3 63 87 125
3 54 78 81
3 64 88 91
3 68 53 77
3 58 60 84
3 67 91 90
3 88 64 68
3 68 92 130
3 60 61 85
3 65 66 90
3 69 93 83
3 62 86 85
3 63 65 89
3 121 96 98
3 98 99 100
3 100 97 136
3 118 106 108
3 100 136 118
3 121 98 100
3 105 102 119
3 119 121 100
3 118 108 109
3 119 100 118
3 104 105 119
3 101 103 104
3 116 101 104
3 104 119 118
3 118 109 110
3 110 107 117
3 117 126 111
3 111 113 114
3 114 115 112
3 131 116 104
3 114 112 131
3 117 111 114
3 118 110 117
3 131 104 118
3 117 114 131
3 115 91 88
3 88 132 112
3 133 92 77
3 77 101 116
3 82 84 108
3 91 115 114
3 133 116 131
3 85 109 108
3 89 90 114
3 107 83 93
3 127 117 107
3 86 110 109
3 128 87 89
3 89 113 111
3 137 94 82
3 82 106 118
3 122 72 74
3 74 98 96
3 83 107 110
3 77 79 103
3 124 122 96
3 74 75 99
3 137 118 136
3 80 104 103
3 76 100 99
3 102 78 95
3 95 123 119
3 81 105 104
3 100 76 73
3 73 138 97
3 129 128 111
3 123 124 121
3 95 120 124
3 120 72 122
3 127 129 126
3 93 125 129
3 125 87 128
3 134 131 112
3 130 134 132
3 92 133 134
3 139 136 97
3 135 139 138
3 94 137 139
3 141 142 140
3 143 146 142
3 147 144 146
3 145 140 144
3 146 140 142
3 143 145 147
3 148 151 150
3 151 154 150
3 155 152 154
3 153 148 152
3 154 148 150
3 151 153 155
3 163 160 162
3 161 156 160
3 158 160 156
3 141 143 142
3 143 147 146
3 147 145 144
3 145 141 140
3 146 144 140
3 143 141 145
3 148 149 151
3 151 155 154
3 155 153 152
3 153 149 148
3 154 152 148
3 151 149 153
3 163 161 160
3 161 157 156
3 158 162 160
3 165 166 164
3 170 175 171
3 171 168 170
3 169 164 168
3 170 164 166
3 167 169 171
3 174 179 175
3 170 173 174
3 171 172 167
3 166 172 173
3 177 179 178
3 173 178 174
3 172 179 176
3 173 176 177
3 165 167 166
3 170 174 175
3 171 169 168
3 169 165 164
3 170 168 164
3 167 165 169
3 174 178 179
3 170 166 173
3 171 175 172
3 166 167 172
3 177 176 179
3 173 177 178
3 172 175 179
3 173 172 176
3 180 183 182
3 183 186 182
3 187 184 186
3 184 181 180
3 186 180 182
3 187 181 185
3 189 190 188
3 191 194 190
3 195 192 194
3 193 188 192
3 194 188 190
3 191 193 195
3 197 198 196
3 198 203 202
3 202 201 200
3 201 196 200
3 202 196 198
3 203 197 201
3 205 206 204
3 207 210 206
3 211 208 210
3 209 204 208
3 210 204 206
3 207 209 211
3 180 181 183
3 183 187 186
3 187 185 184
3 184 185 181
3 186 184 180
3 187 183 181
3 189 191 190
3 191 195 194
3 195 193 192
3 193 189 188
3 194 192 188
3 191 189 193
3 197 199 198
3 198 199 203
3 202 203 201
3 201 197 196
3 202 200 196
3 203 199 197
3 205 207 206
3 207 211 210
3 211 209 208
3 209 205 204
3 210 208 204
3 207 205 209
19 18
