ply
format ascii 1.0
comment Created in Blender version 5.1.2
element vertex 16
property float x
property float y
property float z
property uchar red
property uchar green
property uchar blue
property uchar alpha
element face 18
property list uchar uint vertex_indices
end_header
-14.788902 1.8937148 2.2467143e-08 63 57 52 255
-14.788902 0.8657379 -2.2467152e-08 46 43 39 255
-1.230825 1.8878832 2.3505635e-08 46 43 39 255
-1.230825 0.8123907 -2.3505637e-08 46 43 39 255
-14.604288 2.089777 3.1899564e-08 63 57 52 255
-14.996029 0.9951115 -1.5949784e-08 46 43 39 255
-1.3957114 0.63022304 -3.1899564e-08 63 57 52 255
-1.0039716 1.7248886 1.594978e-08 46 43 39 255
-1.3957114 2.089777 3.1899564e-08 46 43 39 255
-14.996029 1.7248886 1.594978e-08 63 57 52 255
-14.604288 0.63022304 -3.1899564e-08 46 43 39 255
-1.0039716 0.9951115 -1.5949784e-08 63 57 52 255
-14.604288 0.9951115 -1.5949784e-08 46 43 39 255
-14.604288 1.7248886 1.594978e-08 63 57 52 255
-1.3957114 1.7248886 1.594978e-08 46 43 39 255
-1.3957114 0.9951115 -1.5949784e-08 63 57 52 255
3 15 3 11
3 6 12 10
3 1 12 5
3 0 13 4
3 14 2 8
3 14 4 13
3 5 13 9
3 12 14 13
3 15 7 14
3 15 6 3
3 6 15 12
3 1 10 12
3 0 9 13
3 14 7 2
3 14 8 4
3 5 12 13
3 12 15 14
3 15 11 7
