ply
format ascii 1.0
comment Created in Blender version 5.1.2
element vertex 25
property float x
property float y
property float z
property uchar red
property uchar green
property uchar blue
property uchar alpha
element face 32
property list uchar uint vertex_indices
end_header
-3.020839 0.7210337 -1.0727035e-07 65 66 49 255
-3.020839 0.042763352 1.0727036e-07 65 66 49 255
-0.17916107 0.7210337 -1.0727035e-07 65 66 49 255
-0.17916107 0.042763352 1.0727036e-07 65 66 49 255
-1.6 0.78376746 -1.271134e-07 65 66 49 255
-3.2 0.38189852 0 65 66 49 255
-1.6 -0.019970417 1.2711341e-07 65 66 49 255
0 0.38189852 0 65 66 49 255
-1.6 0.38189852 0 65 66 49 255
-2.4 0.76379704 -1.2079664e-07 65 66 49 255
-3.2 0.19094932 6.039832e-08 65 66 49 255
-0.8 0 1.2079664e-07 65 66 49 255
0 0.5728477 -6.0398314e-08 65 66 49 255
-0.8 0.76379704 -1.2079664e-07 65 66 49 255
-3.2 0.5728477 -6.0398314e-08 65 66 49 255
-2.4 0 1.2079664e-07 65 66 49 255
0 0.19094932 6.039832e-08 65 66 49 255
-0.8 0.38189852 0 65 66 49 255
-2.4 0.38189852 0 65 66 49 255
-1.6 0.5728477 -6.0398314e-08 65 66 49 255
-1.6 0.19094932 6.039832e-08 65 66 49 255
-2.4 0.19094932 6.039832e-08 65 66 49 255
-2.4 0.5728477 -6.0398314e-08 65 66 49 255
-0.8 0.5728477 -6.0398314e-08 65 66 49 255
-0.8 0.19094932 6.039832e-08 65 66 49 255
3 24 3 16
3 17 12 23
3 18 19 22
3 15 20 21
3 21 8 18
3 10 18 5
3 1 21 10
3 9 19 4
3 0 22 9
3 5 22 14
3 23 2 13
3 19 13 4
3 8 23 19
3 24 7 17
3 20 17 8
3 20 11 24
3 24 11 3
3 17 7 12
3 18 8 19
3 15 6 20
3 21 20 8
3 10 21 18
3 1 15 21
3 9 22 19
3 0 14 22
3 5 18 22
3 23 12 2
3 19 23 13
3 8 17 23
3 24 16 7
3 20 24 17
3 20 6 11
