ply
format ascii 1.0
comment Created in Blender version 5.1.2
element vertex 37
property float x
property float y
property float z
property uchar red
property uchar green
property uchar blue
property uchar alpha
element face 33
property list uchar uint vertex_indices
end_header
0.09956062 0.3382004 -1.6444197e-09 173 201 210 255
0.09956062 -0.29310474 1.6444192e-09 194 214 221 255
0.1431226 0.3382004 -1.6444197e-09 173 201 210 255
0.1431226 -0.29310474 1.6444192e-09 193 214 221 255
0.16648923 0.3706544 -6.2595333e-09 173 201 210 255
0.165611 0.37957132 -6.720189e-09 173 201 210 255
0.16301006 0.3881455 -7.3675253e-09 173 201 210 255
0.15878633 0.39604747 -7.964108e-09 173 201 210 255
0.15310216 0.4029737 -6.6095573e-09 173 201 210 255
0.14617598 0.4086579 -7.0387003e-09 173 201 210 255
0.13827395 0.41288155 -7.357581e-09 173 201 210 255
0.12969977 0.41548252 -7.553947e-09 173 201 210 255
0.120782904 0.41636074 -7.620251e-09 173 201 210 255
0.11186604 0.41548252 -7.553947e-09 173 201 210 255
0.103291854 0.41288155 -7.357581e-09 173 201 210 255
0.095389836 0.4086579 -7.0387003e-09 173 201 210 255
0.08846365 0.4029737 -6.6095573e-09 173 201 210 255
0.08277948 0.39604747 -7.964108e-09 173 201 210 255
0.07855576 0.3881455 -7.3675253e-09 173 201 210 255
0.075954825 0.37957132 -6.720189e-09 173 201 210 255
0.07507658 0.3706544 -6.2595333e-09 173 201 210 255
0.075954825 0.3617376 -6.312508e-09 173 201 210 255
0.07855576 0.35316336 -6.603905e-09 173 201 210 255
0.08277948 0.34526134 -6.007319e-09 173 201 210 255
0.15878633 0.34526134 -6.007319e-09 173 201 210 255
0.16301006 0.35316336 -6.603905e-09 173 201 210 255
0.165611 0.3617376 -6.312508e-09 173 201 210 255
-0.0015002461 0.31479865 -8.186091e-09 210 173 181 255
-0.0015002461 0.09794244 8.186097e-09 210 114 121 255
0.10159681 0.28210115 -8.186091e-09 210 174 182 255
0.10159681 0.06524492 8.186098e-09 210 112 119 255
-0.102975294 0.32156366 -8.186092e-09 211 112 118 255
-0.102975294 0.104707435 8.186098e-09 210 128 136 255
-0.19994032 0.29563117 -8.186092e-09 210 108 115 255
-0.19994032 0.07877494 8.186098e-09 210 177 185 255
-0.24775898 0.31705368 -8.186093e-09 211 112 119 255
-0.24775898 0.10019745 8.186097e-09 210 176 184 255
3 1 2 0
3 25 10 18
3 1 3 2
3 2 24 25
3 25 26 4
3 4 5 6
3 6 7 8
3 8 9 10
3 10 11 12
3 12 13 14
3 14 15 16
3 16 17 18
3 18 19 20
3 20 21 22
3 22 23 0
3 0 2 25
3 25 4 6
3 6 8 10
3 10 12 14
3 14 16 18
3 18 20 22
3 22 0 25
3 25 6 10
3 10 14 18
3 18 22 25
3 28 29 27
3 27 32 28
3 32 33 34
3 33 36 34
3 28 30 29
3 27 31 32
3 32 31 33
3 33 35 36
