ply
format ascii 1.0
comment Created in Blender version 5.1.0
element vertex 62
property float x
property float y
property float z
property uchar red
property uchar green
property uchar blue
property uchar alpha
element face 120
property list uchar uint vertex_indices
end_header
0.9716758 0.9716758 0.9716758 253 174 52 255
0.9287723 0.9858131 -0.9355558 253 174 52 255
0.96119165 -0.952753 0.95302683 253 174 52 255
0.92442054 -0.85829633 -0.9733536 253 174 52 255
-0.9716758 0.9716758 0.9716758 253 174 52 255
-0.9716758 0.9716758 -0.9716758 253 174 52 255
-0.9370136 -0.95915854 0.96566707 253 174 52 255
-0.9716758 -0.9716758 -0.9716758 253 174 52 255
-0.017339868 0.9078672 -0.9082419 253 174 52 255
-7.302974e-05 -0.96018916 0.96024114 253 174 52 255
0 -0.9716758 -0.9716758 253 174 52 255
0 0.9716758 0.9716758 253 174 52 255
0.4858379 -0.9716758 -0.9716758 240 172 101 255
0.4858379 0.9716758 0.9716758 240 172 101 255
0.4858379 0.9716758 -0.9716758 240 172 101 255
0.48577476 -0.9669998 0.9670055 205 148 77 255
-0.49342492 0.9593163 -0.95804054 240 172 101 255
-0.4858379 -0.9716758 0.9716758 240 172 101 255
-0.4858379 -0.9716758 -0.9716758 240 172 101 255
-0.4858379 0.9716758 0.9716758 240 172 101 255
-0.9716854 -3.1570315e-07 -0.97119457 253 174 52 255
0.9716758 0 0.9716758 253 174 52 255
-0.9541976 -0.0033648002 0.95397836 253 174 52 255
0.91411126 0.0965466 -0.94799924 253 174 52 255
0.12237785 0.06610359 -0.9480596 185 142 68 255
0 0 0.9716758 131 126 2 255
0.4858379 0 0.9716758 139 253 142 255
0.45744014 0.029301072 -0.951486 185 142 68 255
-0.44704735 -0.023363927 -0.95194376 185 142 68 255
-0.4858379 0 0.9716758 137 216 84 255
-0.9711029 0.48600733 0.9711313 240 172 101 255
0.9200138 0.5689142 -0.9528453 253 174 52 255
-0.9716762 0.4858379 -0.9716567 240 172 101 255
0.9716758 0.4858379 0.9716758 253 174 52 255
0.00941982 0.4792263 -0.94416 185 142 68 255
0 0.4858379 0.9716758 139 253 142 255
0.4858379 0.4858379 0.9716758 139 253 142 255
0.37492734 0.48147473 -0.9380679 185 142 85 255
-0.48360243 0.48028213 -0.96141386 185 142 68 255
-0.4858379 0.4858379 0.9716758 139 253 142 255
-0.9716769 -0.48583794 -0.9716201 240 172 101 255
0.96985537 -0.48546046 0.9696082 253 174 52 255
0.04758265 -0.4595983 -0.95518225 185 142 68 255
-0.0018486365 -0.4900987 0.9814182 139 253 142 255
0.4858379 -0.4858379 0.9716758 139 253 142 255
0.4858706 -0.48594114 -0.96676403 185 142 68 255
-0.485918 -0.4858654 -0.96660817 185 142 68 255
-0.4858379 -0.4858379 0.9716758 139 253 142 255
-0.96438867 -0.48510292 0.9647055 240 172 101 255
0.9165376 -0.39269492 -0.938535 241 173 100 255
0.4974396 0.007909658 1.7013078 139 253 142 255
0.96274805 6.4186493e-06 1.7396382 139 253 142 255
0.5698304 0.43462494 1.6827147 139 253 142 255
0.9637567 0.4858379 1.7401987 139 253 142 255
0.47791877 -0.4858379 1.7401987 139 253 142 255
0.95672673 -0.48169383 1.7362987 139 253 142 255
-0.669747 0.07833368 1.9241654 139 253 142 255
-1.1443218 0.07218679 1.9178174 139 253 142 255
-0.669747 0.56417155 1.9241654 139 253 142 255
-1.1281443 0.5211621 1.8763924 139 253 142 255
-0.669747 -0.40750423 1.9241654 139 253 142 255
-1.1555849 -0.40750423 1.9241654 139 253 142 255
3 48 17 47
3 17 7 18
3 30 5 32
3 49 12 45
3 41 3 49
3 13 1 14
3 19 8 16
3 42 18 46
3 15 10 12
3 43 15 44
3 44 2 41
3 2 12 3
3 11 14 8
3 45 10 42
3 46 7 40
3 4 16 5
3 9 18 10
3 47 9 43
3 47 60 61
3 38 20 32
3 37 24 34
3 36 21 33
3 36 52 53
3 34 28 38
3 33 23 31
3 31 27 37
3 48 20 40
3 30 29 39
3 4 39 19
3 1 37 14
3 0 31 1
3 8 38 16
3 11 36 13
3 13 33 0
3 14 34 8
3 16 32 5
3 19 35 11
3 22 32 20
3 6 40 7
3 39 57 59
3 28 40 20
3 27 42 24
3 26 41 21
3 25 52 35
3 24 46 28
3 21 49 23
3 23 45 27
3 22 47 29
3 52 51 53
3 50 55 51
3 43 50 25
3 36 51 26
3 44 54 43
3 26 55 44
3 59 56 58
3 57 60 56
3 35 56 25
3 39 58 35
3 29 61 57
3 25 60 43
3 48 6 17
3 17 6 7
3 30 4 5
3 49 3 12
3 41 2 3
3 13 0 1
3 19 11 8
3 42 10 18
3 15 9 10
3 43 9 15
3 44 15 2
3 2 15 12
3 11 13 14
3 45 12 10
3 46 18 7
3 4 19 16
3 9 17 18
3 47 17 9
3 47 43 60
3 38 28 20
3 37 27 24
3 36 26 21
3 36 35 52
3 34 24 28
3 33 21 23
3 31 23 27
3 48 22 20
3 30 22 29
3 4 30 39
3 1 31 37
3 0 33 31
3 8 34 38
3 11 35 36
3 13 36 33
3 14 37 34
3 16 38 32
3 19 39 35
3 22 30 32
3 6 48 40
3 39 29 57
3 28 46 40
3 27 45 42
3 26 44 41
3 25 50 52
3 24 42 46
3 21 41 49
3 23 49 45
3 22 48 47
3 52 50 51
3 50 54 55
3 43 54 50
3 36 53 51
3 44 55 54
3 26 51 55
3 59 57 56
3 57 61 60
3 35 58 56
3 39 59 58
3 29 47 61
3 25 56 60
